<svg xmlns="http://www.w3.org/2000/svg" xmlns:xlink="http://www.w3.org/1999/xlink" width="1920" zoomAndPan="magnify" viewBox="0 0 1440 809.999993" height="1080" preserveAspectRatio="xMidYMid meet" version="1.2"><defs><clipPath id="68d0001d72"><path d="M 0 0 L 1440 0 L 1440 13.894531 L 0 13.894531 Z M 1425.808594 13.894531 L 1440 13.894531 L 1440 795.808594 L 1425.808594 795.808594 Z M 0 13.894531 L 13.894531 13.894531 L 13.894531 795.808594 L 0 795.808594 Z M 0 795.808594 L 1440 795.808594 L 1440 810 L 0 810 Z M 0 795.808594 "/></clipPath></defs><g id="04da4b6261"><rect x="0" width="1440" y="0" height="809.999993" style="fill:#ffffff;fill-opacity:1;stroke:none;"/><rect x="0" width="1440" y="0" height="809.999993" style="fill:#f2f2f0;fill-opacity:1;stroke:none;"/><g clip-rule="nonzero" clip-path="url(#68d0001d72)"><rect x="0" width="1440" y="0" height="809.999993" style="fill:#fdfdfd;fill-opacity:1;stroke:none;"/></g><g style="fill:#000000;fill-opacity:1;"><g transform="translate(81.000002, 477.031638)"><path style="stroke:none" d="M 34.484375 0 L 34.484375 -51.488281 L 52.914062 -51.488281 L 52.914062 -63.363281 L 2.375 -63.363281 L 2.375 -51.488281 L 20.898438 -51.488281 L 20.898438 0 Z M 34.484375 0 "/></g></g><g style="fill:#000000;fill-opacity:1;"><g transform="translate(131.535472, 477.031638)"><path style="stroke:none" d="M 49.113281 0 L 49.113281 -32.582031 C 49.113281 -41.511719 44.269531 -47.023438 34.199219 -47.023438 C 26.695312 -47.023438 20.992188 -43.414062 18.050781 -39.898438 L 18.050781 -63.363281 L 5.984375 -63.363281 L 5.984375 0 L 18.050781 0 L 18.050781 -30.875 C 20.140625 -33.628906 23.84375 -36.289062 28.5 -36.289062 C 33.722656 -36.289062 37.046875 -34.292969 37.046875 -27.929688 L 37.046875 0 Z M 49.113281 0 "/></g></g><g style="fill:#000000;fill-opacity:1;"><g transform="translate(181.880959, 477.031638)"><path style="stroke:none" d="M 45.597656 0 L 45.597656 -29.636719 C 45.597656 -42.84375 36.003906 -47.023438 25.554688 -47.023438 C 18.335938 -47.023438 11.113281 -44.742188 5.507812 -39.804688 L 10.070312 -31.726562 C 13.964844 -35.339844 18.523438 -37.144531 23.464844 -37.144531 C 29.542969 -37.144531 33.535156 -34.101562 33.535156 -29.449219 L 33.535156 -23.082031 C 30.492188 -26.789062 25.078125 -28.6875 19 -28.6875 C 11.683594 -28.6875 3.039062 -24.792969 3.039062 -14.058594 C 3.039062 -3.800781 11.683594 1.140625 19 1.140625 C 24.984375 1.140625 30.398438 -1.046875 33.535156 -4.75 L 33.535156 0 Z M 33.535156 -11.019531 C 31.539062 -8.359375 27.738281 -7.03125 23.84375 -7.03125 C 19.09375 -7.03125 15.199219 -9.5 15.199219 -13.773438 C 15.199219 -18.144531 19.09375 -20.707031 23.84375 -20.707031 C 27.738281 -20.707031 31.539062 -19.378906 33.535156 -16.71875 Z M 33.535156 -11.019531 "/></g></g><g style="fill:#000000;fill-opacity:1;"><g transform="translate(228.711736, 477.031638)"><path style="stroke:none" d="M 49.015625 0 L 49.015625 -32.394531 C 49.015625 -41.324219 44.171875 -47.023438 34.101562 -47.023438 C 26.597656 -47.023438 20.992188 -43.414062 18.050781 -39.898438 L 18.050781 -45.882812 L 5.984375 -45.882812 L 5.984375 0 L 18.050781 0 L 18.050781 -30.875 C 20.042969 -33.628906 23.75 -36.289062 28.5 -36.289062 C 33.628906 -36.289062 36.953125 -34.101562 36.953125 -27.738281 L 36.953125 0 Z M 49.015625 0 "/></g></g><g style="fill:#000000;fill-opacity:1;"><g transform="translate(278.962226, 477.031638)"><path style="stroke:none" d="M 50.824219 0 L 32.109375 -25.078125 L 50.253906 -45.882812 L 35.433594 -45.882812 L 18.050781 -25.457031 L 18.050781 -63.363281 L 5.984375 -63.363281 L 5.984375 0 L 18.050781 0 L 18.050781 -11.78125 L 23.558594 -17.667969 L 35.71875 0 Z M 50.824219 0 "/></g></g><g style="fill:#000000;fill-opacity:1;"><g transform="translate(325.03307, 477.031638)"><path style="stroke:none" d=""/></g></g><g style="fill:#000000;fill-opacity:1;"><g transform="translate(344.601092, 477.031638)"><path style="stroke:none" d="M 37.429688 0 L 37.429688 -25.933594 L 61.652344 -63.363281 L 46.261719 -63.363281 L 30.683594 -37.902344 L 14.914062 -63.363281 L -0.476562 -63.363281 L 23.9375 -25.933594 L 23.9375 0 Z M 37.429688 0 "/></g></g><g style="fill:#000000;fill-opacity:1;"><g transform="translate(401.121078, 477.031638)"><path style="stroke:none" d="M 27.261719 1.140625 C 42.460938 1.140625 51.582031 -9.878906 51.582031 -22.988281 C 51.582031 -36.003906 42.460938 -47.023438 27.261719 -47.023438 C 12.160156 -47.023438 3.039062 -36.003906 3.039062 -22.988281 C 3.039062 -9.878906 12.160156 1.140625 27.261719 1.140625 Z M 27.261719 -9.59375 C 19.757812 -9.59375 15.578125 -15.769531 15.578125 -22.988281 C 15.578125 -30.113281 19.757812 -36.289062 27.261719 -36.289062 C 34.769531 -36.289062 39.042969 -30.113281 39.042969 -22.988281 C 39.042969 -15.769531 34.769531 -9.59375 27.261719 -9.59375 Z M 27.261719 -9.59375 "/></g></g><g style="fill:#000000;fill-opacity:1;"><g transform="translate(450.896604, 477.031638)"><path style="stroke:none" d="M 49.015625 0 L 49.015625 -45.882812 L 36.953125 -45.882812 L 36.953125 -14.820312 C 34.863281 -12.160156 31.160156 -9.59375 26.503906 -9.59375 C 21.375 -9.59375 18.050781 -11.683594 18.050781 -18.050781 L 18.050781 -45.882812 L 5.984375 -45.882812 L 5.984375 -13.300781 C 5.984375 -4.371094 10.734375 1.140625 20.804688 1.140625 C 28.308594 1.140625 33.816406 -2.28125 36.953125 -5.792969 L 36.953125 0 Z M 49.015625 0 "/></g></g><g style="fill:#545454;fill-opacity:1;"><g transform="translate(81.000002, 658.550027)"><path style="stroke:none" d="M 13.0625 0 L 16.601562 -11.105469 L 14.808594 -11.105469 L 12.09375 -2.253906 L 9.175781 -11.105469 L 7.703125 -11.105469 L 4.78125 -2.253906 L 2.070312 -11.105469 L 0.277344 -11.105469 L 3.816406 0 L 5.542969 0 L 8.4375 -8.921875 L 11.335938 0 Z M 13.0625 0 "/></g></g><g style="fill:#545454;fill-opacity:1;"><g transform="translate(97.876318, 658.550027)"><path style="stroke:none" d="M 13.0625 0 L 16.601562 -11.105469 L 14.808594 -11.105469 L 12.09375 -2.253906 L 9.175781 -11.105469 L 7.703125 -11.105469 L 4.78125 -2.253906 L 2.070312 -11.105469 L 0.277344 -11.105469 L 3.816406 0 L 5.542969 0 L 8.4375 -8.921875 L 11.335938 0 Z M 13.0625 0 "/></g></g><g style="fill:#545454;fill-opacity:1;"><g transform="translate(114.752633, 658.550027)"><path style="stroke:none" d="M 13.0625 0 L 16.601562 -11.105469 L 14.808594 -11.105469 L 12.09375 -2.253906 L 9.175781 -11.105469 L 7.703125 -11.105469 L 4.78125 -2.253906 L 2.070312 -11.105469 L 0.277344 -11.105469 L 3.816406 0 L 5.542969 0 L 8.4375 -8.921875 L 11.335938 0 Z M 13.0625 0 "/></g></g><g style="fill:#545454;fill-opacity:1;"><g transform="translate(131.628948, 658.550027)"><path style="stroke:none" d="M 1.378906 -1.035156 C 1.378906 -0.34375 1.953125 0.230469 2.644531 0.230469 C 3.335938 0.230469 3.910156 -0.34375 3.910156 -1.035156 C 3.910156 -1.726562 3.335938 -2.300781 2.644531 -2.300781 C 1.953125 -2.300781 1.378906 -1.726562 1.378906 -1.035156 Z M 1.378906 -1.035156 "/></g></g><g style="fill:#545454;fill-opacity:1;"><g transform="translate(136.917171, 658.550027)"><path style="stroke:none" d="M 3.449219 0 L 3.449219 -7.863281 C 3.957031 -8.761719 5.402344 -9.636719 6.460938 -9.636719 C 6.738281 -9.636719 6.945312 -9.613281 7.152344 -9.566406 L 7.152344 -11.335938 C 5.632812 -11.335938 4.347656 -10.484375 3.449219 -9.3125 L 3.449219 -11.105469 L 1.726562 -11.105469 L 1.726562 0 Z M 3.449219 0 "/></g></g><g style="fill:#545454;fill-opacity:1;"><g transform="translate(144.504615, 658.550027)"><path style="stroke:none" d="M 1.082031 -5.566406 C 1.082031 -2.09375 3.449219 0.277344 6.738281 0.277344 C 8.554688 0.277344 10.046875 -0.320312 11.152344 -1.425781 L 10.324219 -2.550781 C 9.449219 -1.65625 8.164062 -1.148438 6.898438 -1.148438 C 4.507812 -1.148438 3.035156 -2.898438 2.898438 -4.988281 L 11.886719 -4.988281 L 11.886719 -5.425781 C 11.886719 -8.761719 9.910156 -11.382812 6.554688 -11.382812 C 3.378906 -11.382812 1.082031 -8.785156 1.082031 -5.566406 Z M 6.53125 -9.957031 C 9.058594 -9.957031 10.164062 -7.910156 10.1875 -6.253906 L 2.898438 -6.253906 C 2.988281 -7.957031 4.160156 -9.957031 6.53125 -9.957031 Z M 6.53125 -9.957031 "/></g></g><g style="fill:#545454;fill-opacity:1;"><g transform="translate(157.449255, 658.550027)"><path style="stroke:none" d="M 10.394531 0 L 10.394531 -7.632812 C 10.394531 -10.324219 8.4375 -11.382812 6.09375 -11.382812 C 4.277344 -11.382812 2.851562 -10.785156 1.65625 -9.542969 L 2.460938 -8.347656 C 3.449219 -9.40625 4.53125 -9.886719 5.863281 -9.886719 C 7.472656 -9.886719 8.667969 -9.035156 8.667969 -7.542969 L 8.667969 -5.542969 C 7.773438 -6.578125 6.507812 -7.058594 4.988281 -7.058594 C 3.105469 -7.058594 1.105469 -5.886719 1.105469 -3.402344 C 1.105469 -0.988281 3.105469 0.277344 4.988281 0.277344 C 6.484375 0.277344 7.75 -0.253906 8.667969 -1.265625 L 8.667969 0 Z M 8.667969 -2.34375 C 8.003906 -1.425781 6.828125 -0.964844 5.609375 -0.964844 C 4 -0.964844 2.875 -1.976562 2.875 -3.378906 C 2.875 -4.804688 4 -5.816406 5.609375 -5.816406 C 6.828125 -5.816406 8.003906 -5.359375 8.667969 -4.4375 Z M 8.667969 -2.34375 "/></g></g><g style="fill:#545454;fill-opacity:1;"><g transform="translate(169.566168, 658.550027)"><path style="stroke:none" d="M 3.449219 0 L 3.449219 -15.335938 L 1.726562 -15.335938 L 1.726562 0 Z M 3.449219 0 "/></g></g><g style="fill:#545454;fill-opacity:1;"><g transform="translate(174.739423, 658.550027)"><path style="stroke:none" d="M 3.449219 0 L 3.449219 -15.335938 L 1.726562 -15.335938 L 1.726562 0 Z M 3.449219 0 "/></g></g><g style="fill:#545454;fill-opacity:1;"><g transform="translate(179.912679, 658.550027)"><path style="stroke:none" d="M 1.105469 4.347656 C 1.425781 4.4375 2 4.507812 2.367188 4.507812 C 3.839844 4.484375 4.96875 3.863281 5.632812 2.253906 L 11.199219 -11.105469 L 9.3125 -11.105469 L 5.632812 -2 L 1.929688 -11.105469 L 0.0703125 -11.105469 L 4.714844 0.113281 L 3.976562 1.792969 C 3.585938 2.714844 3.082031 2.964844 2.324219 2.964844 C 2.046875 2.964844 1.632812 2.898438 1.378906 2.78125 Z M 1.105469 4.347656 "/></g></g><g style="fill:#545454;fill-opacity:1;"><g transform="translate(191.178883, 658.550027)"><path style="stroke:none" d="M 1.703125 2.851562 C 3.011719 4.140625 4.300781 4.507812 6.1875 4.507812 C 8.898438 4.507812 11.472656 3.355469 11.472656 -0.320312 L 11.472656 -11.105469 L 9.75 -11.105469 L 9.75 -9.429688 C 8.851562 -10.648438 7.519531 -11.382812 6.023438 -11.382812 C 3.105469 -11.382812 1.082031 -9.175781 1.082031 -5.609375 C 1.082031 -2.023438 3.128906 0.136719 6.023438 0.136719 C 7.589844 0.136719 8.945312 -0.710938 9.75 -1.839844 L 9.75 -0.253906 C 9.75 2.183594 8.023438 3.082031 6.1875 3.082031 C 4.597656 3.082031 3.496094 2.667969 2.574219 1.5625 Z M 9.75 -3.195312 C 9.152344 -2.230469 7.816406 -1.378906 6.4375 -1.378906 C 4.207031 -1.378906 2.875 -3.171875 2.875 -5.609375 C 2.875 -8.070312 4.207031 -9.84375 6.4375 -9.84375 C 7.816406 -9.84375 9.152344 -9.015625 9.75 -8.046875 Z M 9.75 -3.195312 "/></g></g><g style="fill:#545454;fill-opacity:1;"><g transform="translate(204.376438, 658.550027)"><path style="stroke:none" d="M 3.449219 0 L 3.449219 -7.863281 C 3.957031 -8.761719 5.402344 -9.636719 6.460938 -9.636719 C 6.738281 -9.636719 6.945312 -9.613281 7.152344 -9.566406 L 7.152344 -11.335938 C 5.632812 -11.335938 4.347656 -10.484375 3.449219 -9.3125 L 3.449219 -11.105469 L 1.726562 -11.105469 L 1.726562 0 Z M 3.449219 0 "/></g></g><g style="fill:#545454;fill-opacity:1;"><g transform="translate(211.963882, 658.550027)"><path style="stroke:none" d="M 1.082031 -5.566406 C 1.082031 -2.09375 3.449219 0.277344 6.738281 0.277344 C 8.554688 0.277344 10.046875 -0.320312 11.152344 -1.425781 L 10.324219 -2.550781 C 9.449219 -1.65625 8.164062 -1.148438 6.898438 -1.148438 C 4.507812 -1.148438 3.035156 -2.898438 2.898438 -4.988281 L 11.886719 -4.988281 L 11.886719 -5.425781 C 11.886719 -8.761719 9.910156 -11.382812 6.554688 -11.382812 C 3.378906 -11.382812 1.082031 -8.785156 1.082031 -5.566406 Z M 6.53125 -9.957031 C 9.058594 -9.957031 10.164062 -7.910156 10.1875 -6.253906 L 2.898438 -6.253906 C 2.988281 -7.957031 4.160156 -9.957031 6.53125 -9.957031 Z M 6.53125 -9.957031 "/></g></g><g style="fill:#545454;fill-opacity:1;"><g transform="translate(224.908522, 658.550027)"><path style="stroke:none" d="M 10.394531 0 L 10.394531 -7.632812 C 10.394531 -10.324219 8.4375 -11.382812 6.09375 -11.382812 C 4.277344 -11.382812 2.851562 -10.785156 1.65625 -9.542969 L 2.460938 -8.347656 C 3.449219 -9.40625 4.53125 -9.886719 5.863281 -9.886719 C 7.472656 -9.886719 8.667969 -9.035156 8.667969 -7.542969 L 8.667969 -5.542969 C 7.773438 -6.578125 6.507812 -7.058594 4.988281 -7.058594 C 3.105469 -7.058594 1.105469 -5.886719 1.105469 -3.402344 C 1.105469 -0.988281 3.105469 0.277344 4.988281 0.277344 C 6.484375 0.277344 7.75 -0.253906 8.667969 -1.265625 L 8.667969 0 Z M 8.667969 -2.34375 C 8.003906 -1.425781 6.828125 -0.964844 5.609375 -0.964844 C 4 -0.964844 2.875 -1.976562 2.875 -3.378906 C 2.875 -4.804688 4 -5.816406 5.609375 -5.816406 C 6.828125 -5.816406 8.003906 -5.359375 8.667969 -4.4375 Z M 8.667969 -2.34375 "/></g></g><g style="fill:#545454;fill-opacity:1;"><g transform="translate(237.025435, 658.550027)"><path style="stroke:none" d="M 4.53125 0.277344 C 5.542969 0.277344 6.164062 -0.0234375 6.597656 -0.4375 L 6.09375 -1.726562 C 5.863281 -1.472656 5.402344 -1.265625 4.921875 -1.265625 C 4.160156 -1.265625 3.792969 -1.863281 3.792969 -2.691406 L 3.792969 -9.589844 L 6.046875 -9.589844 L 6.046875 -11.105469 L 3.792969 -11.105469 L 3.792969 -14.140625 L 2.070312 -14.140625 L 2.070312 -11.105469 L 0.230469 -11.105469 L 0.230469 -9.589844 L 2.070312 -9.589844 L 2.070312 -2.324219 C 2.070312 -0.667969 2.898438 0.277344 4.53125 0.277344 Z M 4.53125 0.277344 "/></g></g><g style="fill:#545454;fill-opacity:1;"><g transform="translate(243.785162, 658.550027)"><path style="stroke:none" d="M 0.757812 -1.472656 C 1.886719 -0.277344 3.425781 0.277344 5.242188 0.277344 C 8.117188 0.277344 9.613281 -1.21875 9.613281 -3.082031 C 9.613281 -5.542969 7.382812 -6.09375 5.449219 -6.53125 C 4 -6.875 2.738281 -7.21875 2.738281 -8.300781 C 2.738281 -9.289062 3.679688 -9.980469 5.195312 -9.980469 C 6.621094 -9.980469 7.839844 -9.382812 8.507812 -8.578125 L 9.3125 -9.773438 C 8.417969 -10.667969 7.082031 -11.382812 5.195312 -11.382812 C 2.550781 -11.382812 1.058594 -9.910156 1.058594 -8.1875 C 1.058594 -5.886719 3.195312 -5.378906 5.082031 -4.945312 C 6.578125 -4.574219 7.933594 -4.183594 7.933594 -2.964844 C 7.933594 -1.886719 7.011719 -1.125 5.3125 -1.125 C 3.792969 -1.125 2.390625 -1.863281 1.65625 -2.714844 Z M 0.757812 -1.472656 "/></g></g><g style="fill:#545454;fill-opacity:1;"><g transform="translate(254.476564, 658.550027)"><path style="stroke:none" d="M 2.574219 -12.96875 C 3.21875 -12.96875 3.75 -13.5 3.75 -14.140625 C 3.75 -14.785156 3.21875 -15.292969 2.574219 -15.292969 C 1.953125 -15.292969 1.425781 -14.785156 1.425781 -14.140625 C 1.425781 -13.5 1.953125 -12.96875 2.574219 -12.96875 Z M 3.449219 0 L 3.449219 -11.105469 L 1.726562 -11.105469 L 1.726562 0 Z M 3.449219 0 "/></g></g><g style="fill:#545454;fill-opacity:1;"><g transform="translate(259.649819, 658.550027)"><path style="stroke:none" d="M 4.53125 0.277344 C 5.542969 0.277344 6.164062 -0.0234375 6.597656 -0.4375 L 6.09375 -1.726562 C 5.863281 -1.472656 5.402344 -1.265625 4.921875 -1.265625 C 4.160156 -1.265625 3.792969 -1.863281 3.792969 -2.691406 L 3.792969 -9.589844 L 6.046875 -9.589844 L 6.046875 -11.105469 L 3.792969 -11.105469 L 3.792969 -14.140625 L 2.070312 -14.140625 L 2.070312 -11.105469 L 0.230469 -11.105469 L 0.230469 -9.589844 L 2.070312 -9.589844 L 2.070312 -2.324219 C 2.070312 -0.667969 2.898438 0.277344 4.53125 0.277344 Z M 4.53125 0.277344 "/></g></g><g style="fill:#545454;fill-opacity:1;"><g transform="translate(266.409546, 658.550027)"><path style="stroke:none" d="M 1.082031 -5.566406 C 1.082031 -2.09375 3.449219 0.277344 6.738281 0.277344 C 8.554688 0.277344 10.046875 -0.320312 11.152344 -1.425781 L 10.324219 -2.550781 C 9.449219 -1.65625 8.164062 -1.148438 6.898438 -1.148438 C 4.507812 -1.148438 3.035156 -2.898438 2.898438 -4.988281 L 11.886719 -4.988281 L 11.886719 -5.425781 C 11.886719 -8.761719 9.910156 -11.382812 6.554688 -11.382812 C 3.378906 -11.382812 1.082031 -8.785156 1.082031 -5.566406 Z M 6.53125 -9.957031 C 9.058594 -9.957031 10.164062 -7.910156 10.1875 -6.253906 L 2.898438 -6.253906 C 2.988281 -7.957031 4.160156 -9.957031 6.53125 -9.957031 Z M 6.53125 -9.957031 "/></g></g><g style="fill:#545454;fill-opacity:1;"><g transform="translate(279.354187, 658.550027)"><path style="stroke:none" d="M 1.378906 -1.035156 C 1.378906 -0.34375 1.953125 0.230469 2.644531 0.230469 C 3.335938 0.230469 3.910156 -0.34375 3.910156 -1.035156 C 3.910156 -1.726562 3.335938 -2.300781 2.644531 -2.300781 C 1.953125 -2.300781 1.378906 -1.726562 1.378906 -1.035156 Z M 1.378906 -1.035156 "/></g></g><g style="fill:#545454;fill-opacity:1;"><g transform="translate(284.64241, 658.550027)"><path style="stroke:none" d="M 1.082031 -5.566406 C 1.082031 -2.253906 3.3125 0.277344 6.621094 0.277344 C 8.644531 0.277344 9.84375 -0.550781 10.691406 -1.65625 L 9.542969 -2.714844 C 8.808594 -1.726562 7.863281 -1.265625 6.714844 -1.265625 C 4.347656 -1.265625 2.875 -3.105469 2.875 -5.566406 C 2.875 -8.023438 4.347656 -9.84375 6.714844 -9.84375 C 7.863281 -9.84375 8.808594 -9.40625 9.542969 -8.394531 L 10.691406 -9.449219 C 9.84375 -10.554688 8.644531 -11.382812 6.621094 -11.382812 C 3.3125 -11.382812 1.082031 -8.851562 1.082031 -5.566406 Z M 1.082031 -5.566406 "/></g></g><g style="fill:#545454;fill-opacity:1;"><g transform="translate(296.023581, 658.550027)"><path style="stroke:none" d="M 6.578125 0.277344 C 9.957031 0.277344 12.074219 -2.34375 12.074219 -5.566406 C 12.074219 -8.785156 9.957031 -11.382812 6.578125 -11.382812 C 3.195312 -11.382812 1.082031 -8.785156 1.082031 -5.566406 C 1.082031 -2.34375 3.195312 0.277344 6.578125 0.277344 Z M 6.578125 -1.265625 C 4.207031 -1.265625 2.875 -3.289062 2.875 -5.566406 C 2.875 -7.816406 4.207031 -9.84375 6.578125 -9.84375 C 8.945312 -9.84375 10.253906 -7.816406 10.253906 -5.566406 C 10.253906 -3.289062 8.945312 -1.265625 6.578125 -1.265625 Z M 6.578125 -1.265625 "/></g></g><g style="fill:#545454;fill-opacity:1;"><g transform="translate(309.175131, 658.550027)"><path style="stroke:none" d="M 16.855469 0 L 16.855469 -8.023438 C 16.855469 -10.253906 15.773438 -11.382812 13.75 -11.382812 C 12.140625 -11.382812 10.648438 -10.324219 10.027344 -9.3125 C 9.703125 -10.460938 8.738281 -11.382812 7.035156 -11.382812 C 5.402344 -11.382812 3.910156 -10.210938 3.449219 -9.496094 L 3.449219 -11.105469 L 1.726562 -11.105469 L 1.726562 0 L 3.449219 0 L 3.449219 -8.117188 C 4.046875 -9.015625 5.242188 -9.84375 6.371094 -9.84375 C 7.816406 -9.84375 8.417969 -8.945312 8.417969 -7.542969 L 8.417969 0 L 10.140625 0 L 10.140625 -8.140625 C 10.714844 -9.015625 11.933594 -9.84375 13.085938 -9.84375 C 14.511719 -9.84375 15.128906 -8.945312 15.128906 -7.542969 L 15.128906 0 Z M 16.855469 0 "/></g></g><g style="fill:#545454;fill-opacity:1;"><g transform="translate(81.000002, 690.050025)"><path style="stroke:none" d="M 10.96875 0 L 10.96875 -7.839844 C 10.96875 -10.253906 9.75 -11.382812 7.425781 -11.382812 C 5.75 -11.382812 4.230469 -10.417969 3.449219 -9.496094 L 3.449219 -15.335938 L 1.726562 -15.335938 L 1.726562 0 L 3.449219 0 L 3.449219 -8.117188 C 4.117188 -9.015625 5.402344 -9.84375 6.738281 -9.84375 C 8.230469 -9.84375 9.242188 -9.265625 9.242188 -7.3125 L 9.242188 0 Z M 10.96875 0 "/></g></g><g style="fill:#545454;fill-opacity:1;"><g transform="translate(93.691728, 690.050025)"><path style="stroke:none" d="M 1.082031 -5.566406 C 1.082031 -2.09375 3.449219 0.277344 6.738281 0.277344 C 8.554688 0.277344 10.046875 -0.320312 11.152344 -1.425781 L 10.324219 -2.550781 C 9.449219 -1.65625 8.164062 -1.148438 6.898438 -1.148438 C 4.507812 -1.148438 3.035156 -2.898438 2.898438 -4.988281 L 11.886719 -4.988281 L 11.886719 -5.425781 C 11.886719 -8.761719 9.910156 -11.382812 6.554688 -11.382812 C 3.378906 -11.382812 1.082031 -8.785156 1.082031 -5.566406 Z M 6.53125 -9.957031 C 9.058594 -9.957031 10.164062 -7.910156 10.1875 -6.253906 L 2.898438 -6.253906 C 2.988281 -7.957031 4.160156 -9.957031 6.53125 -9.957031 Z M 6.53125 -9.957031 "/></g></g><g style="fill:#545454;fill-opacity:1;"><g transform="translate(106.636368, 690.050025)"><path style="stroke:none" d="M 3.449219 0 L 3.449219 -15.335938 L 1.726562 -15.335938 L 1.726562 0 Z M 3.449219 0 "/></g></g><g style="fill:#545454;fill-opacity:1;"><g transform="translate(111.809624, 690.050025)"><path style="stroke:none" d="M 3.449219 0 L 3.449219 -15.335938 L 1.726562 -15.335938 L 1.726562 0 Z M 3.449219 0 "/></g></g><g style="fill:#545454;fill-opacity:1;"><g transform="translate(116.982879, 690.050025)"><path style="stroke:none" d="M 6.578125 0.277344 C 9.957031 0.277344 12.074219 -2.34375 12.074219 -5.566406 C 12.074219 -8.785156 9.957031 -11.382812 6.578125 -11.382812 C 3.195312 -11.382812 1.082031 -8.785156 1.082031 -5.566406 C 1.082031 -2.34375 3.195312 0.277344 6.578125 0.277344 Z M 6.578125 -1.265625 C 4.207031 -1.265625 2.875 -3.289062 2.875 -5.566406 C 2.875 -7.816406 4.207031 -9.84375 6.578125 -9.84375 C 8.945312 -9.84375 10.253906 -7.816406 10.253906 -5.566406 C 10.253906 -3.289062 8.945312 -1.265625 6.578125 -1.265625 Z M 6.578125 -1.265625 "/></g></g><g style="fill:#545454;fill-opacity:1;"><g transform="translate(130.134452, 690.050025)"><path style="stroke:none" d="M 0.804688 -5.609375 C 0.804688 -1.539062 3.910156 1.609375 8.09375 1.609375 C 9.796875 1.609375 11.453125 1.082031 12.878906 0.160156 L 12.464844 -0.4375 C 11.222656 0.34375 9.820312 0.851562 8.1875 0.851562 C 4.367188 0.851562 1.585938 -1.953125 1.585938 -5.65625 C 1.585938 -9.957031 5.402344 -13.890625 9.84375 -13.890625 C 13.75 -13.890625 16.347656 -11.152344 16.347656 -7.382812 C 16.347656 -4.207031 14.761719 -3.195312 13.867188 -3.195312 C 13.269531 -3.195312 12.785156 -3.609375 12.785156 -4.390625 C 12.785156 -4.53125 12.808594 -4.738281 12.832031 -4.875 L 14.140625 -11.105469 L 12.578125 -11.105469 L 12.28125 -9.679688 C 11.84375 -10.667969 10.832031 -11.472656 9.335938 -11.472656 C 6.621094 -11.472656 3.933594 -8.898438 3.933594 -5.703125 C 3.933594 -3.472656 5.3125 -1.953125 7.449219 -1.953125 C 8.921875 -1.953125 10.277344 -2.828125 11.082031 -3.957031 L 11.105469 -3.816406 C 11.175781 -2.851562 11.910156 -1.953125 13.199219 -1.953125 C 15.128906 -1.953125 17.175781 -3.769531 17.175781 -7.382812 C 17.175781 -11.40625 14.28125 -14.671875 9.933594 -14.671875 C 5.152344 -14.671875 0.804688 -10.578125 0.804688 -5.609375 Z M 11.335938 -5.3125 C 10.667969 -4.347656 9.496094 -3.242188 7.910156 -3.242188 C 6.4375 -3.242188 5.566406 -4.324219 5.566406 -5.792969 C 5.566406 -8.003906 7.335938 -10.1875 9.636719 -10.1875 C 10.992188 -10.1875 11.75 -9.199219 12.003906 -8.484375 Z M 11.335938 -5.3125 "/></g></g><g style="fill:#545454;fill-opacity:1;"><g transform="translate(148.137381, 690.050025)"><path style="stroke:none" d="M 3.449219 0 L 3.449219 -7.863281 C 3.957031 -8.761719 5.402344 -9.636719 6.460938 -9.636719 C 6.738281 -9.636719 6.945312 -9.613281 7.152344 -9.566406 L 7.152344 -11.335938 C 5.632812 -11.335938 4.347656 -10.484375 3.449219 -9.3125 L 3.449219 -11.105469 L 1.726562 -11.105469 L 1.726562 0 Z M 3.449219 0 "/></g></g><g style="fill:#545454;fill-opacity:1;"><g transform="translate(155.724825, 690.050025)"><path style="stroke:none" d="M 1.082031 -5.566406 C 1.082031 -2.09375 3.449219 0.277344 6.738281 0.277344 C 8.554688 0.277344 10.046875 -0.320312 11.152344 -1.425781 L 10.324219 -2.550781 C 9.449219 -1.65625 8.164062 -1.148438 6.898438 -1.148438 C 4.507812 -1.148438 3.035156 -2.898438 2.898438 -4.988281 L 11.886719 -4.988281 L 11.886719 -5.425781 C 11.886719 -8.761719 9.910156 -11.382812 6.554688 -11.382812 C 3.378906 -11.382812 1.082031 -8.785156 1.082031 -5.566406 Z M 6.53125 -9.957031 C 9.058594 -9.957031 10.164062 -7.910156 10.1875 -6.253906 L 2.898438 -6.253906 C 2.988281 -7.957031 4.160156 -9.957031 6.53125 -9.957031 Z M 6.53125 -9.957031 "/></g></g><g style="fill:#545454;fill-opacity:1;"><g transform="translate(168.669465, 690.050025)"><path style="stroke:none" d="M 10.394531 0 L 10.394531 -7.632812 C 10.394531 -10.324219 8.4375 -11.382812 6.09375 -11.382812 C 4.277344 -11.382812 2.851562 -10.785156 1.65625 -9.542969 L 2.460938 -8.347656 C 3.449219 -9.40625 4.53125 -9.886719 5.863281 -9.886719 C 7.472656 -9.886719 8.667969 -9.035156 8.667969 -7.542969 L 8.667969 -5.542969 C 7.773438 -6.578125 6.507812 -7.058594 4.988281 -7.058594 C 3.105469 -7.058594 1.105469 -5.886719 1.105469 -3.402344 C 1.105469 -0.988281 3.105469 0.277344 4.988281 0.277344 C 6.484375 0.277344 7.75 -0.253906 8.667969 -1.265625 L 8.667969 0 Z M 8.667969 -2.34375 C 8.003906 -1.425781 6.828125 -0.964844 5.609375 -0.964844 C 4 -0.964844 2.875 -1.976562 2.875 -3.378906 C 2.875 -4.804688 4 -5.816406 5.609375 -5.816406 C 6.828125 -5.816406 8.003906 -5.359375 8.667969 -4.4375 Z M 8.667969 -2.34375 "/></g></g><g style="fill:#545454;fill-opacity:1;"><g transform="translate(180.786377, 690.050025)"><path style="stroke:none" d="M 3.449219 0 L 3.449219 -15.335938 L 1.726562 -15.335938 L 1.726562 0 Z M 3.449219 0 "/></g></g><g style="fill:#545454;fill-opacity:1;"><g transform="translate(185.959633, 690.050025)"><path style="stroke:none" d="M 3.449219 0 L 3.449219 -15.335938 L 1.726562 -15.335938 L 1.726562 0 Z M 3.449219 0 "/></g></g><g style="fill:#545454;fill-opacity:1;"><g transform="translate(191.132888, 690.050025)"><path style="stroke:none" d="M 1.105469 4.347656 C 1.425781 4.4375 2 4.507812 2.367188 4.507812 C 3.839844 4.484375 4.96875 3.863281 5.632812 2.253906 L 11.199219 -11.105469 L 9.3125 -11.105469 L 5.632812 -2 L 1.929688 -11.105469 L 0.0703125 -11.105469 L 4.714844 0.113281 L 3.976562 1.792969 C 3.585938 2.714844 3.082031 2.964844 2.324219 2.964844 C 2.046875 2.964844 1.632812 2.898438 1.378906 2.78125 Z M 1.105469 4.347656 "/></g></g><g style="fill:#545454;fill-opacity:1;"><g transform="translate(202.399093, 690.050025)"><path style="stroke:none" d="M 1.703125 2.851562 C 3.011719 4.140625 4.300781 4.507812 6.1875 4.507812 C 8.898438 4.507812 11.472656 3.355469 11.472656 -0.320312 L 11.472656 -11.105469 L 9.75 -11.105469 L 9.75 -9.429688 C 8.851562 -10.648438 7.519531 -11.382812 6.023438 -11.382812 C 3.105469 -11.382812 1.082031 -9.175781 1.082031 -5.609375 C 1.082031 -2.023438 3.128906 0.136719 6.023438 0.136719 C 7.589844 0.136719 8.945312 -0.710938 9.75 -1.839844 L 9.75 -0.253906 C 9.75 2.183594 8.023438 3.082031 6.1875 3.082031 C 4.597656 3.082031 3.496094 2.667969 2.574219 1.5625 Z M 9.75 -3.195312 C 9.152344 -2.230469 7.816406 -1.378906 6.4375 -1.378906 C 4.207031 -1.378906 2.875 -3.171875 2.875 -5.609375 C 2.875 -8.070312 4.207031 -9.84375 6.4375 -9.84375 C 7.816406 -9.84375 9.152344 -9.015625 9.75 -8.046875 Z M 9.75 -3.195312 "/></g></g><g style="fill:#545454;fill-opacity:1;"><g transform="translate(215.596648, 690.050025)"><path style="stroke:none" d="M 3.449219 0 L 3.449219 -7.863281 C 3.957031 -8.761719 5.402344 -9.636719 6.460938 -9.636719 C 6.738281 -9.636719 6.945312 -9.613281 7.152344 -9.566406 L 7.152344 -11.335938 C 5.632812 -11.335938 4.347656 -10.484375 3.449219 -9.3125 L 3.449219 -11.105469 L 1.726562 -11.105469 L 1.726562 0 Z M 3.449219 0 "/></g></g><g style="fill:#545454;fill-opacity:1;"><g transform="translate(223.184092, 690.050025)"><path style="stroke:none" d="M 1.082031 -5.566406 C 1.082031 -2.09375 3.449219 0.277344 6.738281 0.277344 C 8.554688 0.277344 10.046875 -0.320312 11.152344 -1.425781 L 10.324219 -2.550781 C 9.449219 -1.65625 8.164062 -1.148438 6.898438 -1.148438 C 4.507812 -1.148438 3.035156 -2.898438 2.898438 -4.988281 L 11.886719 -4.988281 L 11.886719 -5.425781 C 11.886719 -8.761719 9.910156 -11.382812 6.554688 -11.382812 C 3.378906 -11.382812 1.082031 -8.785156 1.082031 -5.566406 Z M 6.53125 -9.957031 C 9.058594 -9.957031 10.164062 -7.910156 10.1875 -6.253906 L 2.898438 -6.253906 C 2.988281 -7.957031 4.160156 -9.957031 6.53125 -9.957031 Z M 6.53125 -9.957031 "/></g></g><g style="fill:#545454;fill-opacity:1;"><g transform="translate(236.128732, 690.050025)"><path style="stroke:none" d="M 10.394531 0 L 10.394531 -7.632812 C 10.394531 -10.324219 8.4375 -11.382812 6.09375 -11.382812 C 4.277344 -11.382812 2.851562 -10.785156 1.65625 -9.542969 L 2.460938 -8.347656 C 3.449219 -9.40625 4.53125 -9.886719 5.863281 -9.886719 C 7.472656 -9.886719 8.667969 -9.035156 8.667969 -7.542969 L 8.667969 -5.542969 C 7.773438 -6.578125 6.507812 -7.058594 4.988281 -7.058594 C 3.105469 -7.058594 1.105469 -5.886719 1.105469 -3.402344 C 1.105469 -0.988281 3.105469 0.277344 4.988281 0.277344 C 6.484375 0.277344 7.75 -0.253906 8.667969 -1.265625 L 8.667969 0 Z M 8.667969 -2.34375 C 8.003906 -1.425781 6.828125 -0.964844 5.609375 -0.964844 C 4 -0.964844 2.875 -1.976562 2.875 -3.378906 C 2.875 -4.804688 4 -5.816406 5.609375 -5.816406 C 6.828125 -5.816406 8.003906 -5.359375 8.667969 -4.4375 Z M 8.667969 -2.34375 "/></g></g><g style="fill:#545454;fill-opacity:1;"><g transform="translate(248.245644, 690.050025)"><path style="stroke:none" d="M 4.53125 0.277344 C 5.542969 0.277344 6.164062 -0.0234375 6.597656 -0.4375 L 6.09375 -1.726562 C 5.863281 -1.472656 5.402344 -1.265625 4.921875 -1.265625 C 4.160156 -1.265625 3.792969 -1.863281 3.792969 -2.691406 L 3.792969 -9.589844 L 6.046875 -9.589844 L 6.046875 -11.105469 L 3.792969 -11.105469 L 3.792969 -14.140625 L 2.070312 -14.140625 L 2.070312 -11.105469 L 0.230469 -11.105469 L 0.230469 -9.589844 L 2.070312 -9.589844 L 2.070312 -2.324219 C 2.070312 -0.667969 2.898438 0.277344 4.53125 0.277344 Z M 4.53125 0.277344 "/></g></g><g style="fill:#545454;fill-opacity:1;"><g transform="translate(255.005371, 690.050025)"><path style="stroke:none" d="M 0.757812 -1.472656 C 1.886719 -0.277344 3.425781 0.277344 5.242188 0.277344 C 8.117188 0.277344 9.613281 -1.21875 9.613281 -3.082031 C 9.613281 -5.542969 7.382812 -6.09375 5.449219 -6.53125 C 4 -6.875 2.738281 -7.21875 2.738281 -8.300781 C 2.738281 -9.289062 3.679688 -9.980469 5.195312 -9.980469 C 6.621094 -9.980469 7.839844 -9.382812 8.507812 -8.578125 L 9.3125 -9.773438 C 8.417969 -10.667969 7.082031 -11.382812 5.195312 -11.382812 C 2.550781 -11.382812 1.058594 -9.910156 1.058594 -8.1875 C 1.058594 -5.886719 3.195312 -5.378906 5.082031 -4.945312 C 6.578125 -4.574219 7.933594 -4.183594 7.933594 -2.964844 C 7.933594 -1.886719 7.011719 -1.125 5.3125 -1.125 C 3.792969 -1.125 2.390625 -1.863281 1.65625 -2.714844 Z M 0.757812 -1.472656 "/></g></g><g style="fill:#545454;fill-opacity:1;"><g transform="translate(265.696773, 690.050025)"><path style="stroke:none" d="M 2.574219 -12.96875 C 3.21875 -12.96875 3.75 -13.5 3.75 -14.140625 C 3.75 -14.785156 3.21875 -15.292969 2.574219 -15.292969 C 1.953125 -15.292969 1.425781 -14.785156 1.425781 -14.140625 C 1.425781 -13.5 1.953125 -12.96875 2.574219 -12.96875 Z M 3.449219 0 L 3.449219 -11.105469 L 1.726562 -11.105469 L 1.726562 0 Z M 3.449219 0 "/></g></g><g style="fill:#545454;fill-opacity:1;"><g transform="translate(270.870029, 690.050025)"><path style="stroke:none" d="M 4.53125 0.277344 C 5.542969 0.277344 6.164062 -0.0234375 6.597656 -0.4375 L 6.09375 -1.726562 C 5.863281 -1.472656 5.402344 -1.265625 4.921875 -1.265625 C 4.160156 -1.265625 3.792969 -1.863281 3.792969 -2.691406 L 3.792969 -9.589844 L 6.046875 -9.589844 L 6.046875 -11.105469 L 3.792969 -11.105469 L 3.792969 -14.140625 L 2.070312 -14.140625 L 2.070312 -11.105469 L 0.230469 -11.105469 L 0.230469 -9.589844 L 2.070312 -9.589844 L 2.070312 -2.324219 C 2.070312 -0.667969 2.898438 0.277344 4.53125 0.277344 Z M 4.53125 0.277344 "/></g></g><g style="fill:#545454;fill-opacity:1;"><g transform="translate(277.629767, 690.050025)"><path style="stroke:none" d="M 1.082031 -5.566406 C 1.082031 -2.09375 3.449219 0.277344 6.738281 0.277344 C 8.554688 0.277344 10.046875 -0.320312 11.152344 -1.425781 L 10.324219 -2.550781 C 9.449219 -1.65625 8.164062 -1.148438 6.898438 -1.148438 C 4.507812 -1.148438 3.035156 -2.898438 2.898438 -4.988281 L 11.886719 -4.988281 L 11.886719 -5.425781 C 11.886719 -8.761719 9.910156 -11.382812 6.554688 -11.382812 C 3.378906 -11.382812 1.082031 -8.785156 1.082031 -5.566406 Z M 6.53125 -9.957031 C 9.058594 -9.957031 10.164062 -7.910156 10.1875 -6.253906 L 2.898438 -6.253906 C 2.988281 -7.957031 4.160156 -9.957031 6.53125 -9.957031 Z M 6.53125 -9.957031 "/></g></g><g style="fill:#545454;fill-opacity:1;"><g transform="translate(290.574407, 690.050025)"><path style="stroke:none" d="M 1.378906 -1.035156 C 1.378906 -0.34375 1.953125 0.230469 2.644531 0.230469 C 3.335938 0.230469 3.910156 -0.34375 3.910156 -1.035156 C 3.910156 -1.726562 3.335938 -2.300781 2.644531 -2.300781 C 1.953125 -2.300781 1.378906 -1.726562 1.378906 -1.035156 Z M 1.378906 -1.035156 "/></g></g><g style="fill:#545454;fill-opacity:1;"><g transform="translate(295.86263, 690.050025)"><path style="stroke:none" d="M 1.082031 -5.566406 C 1.082031 -2.253906 3.3125 0.277344 6.621094 0.277344 C 8.644531 0.277344 9.84375 -0.550781 10.691406 -1.65625 L 9.542969 -2.714844 C 8.808594 -1.726562 7.863281 -1.265625 6.714844 -1.265625 C 4.347656 -1.265625 2.875 -3.105469 2.875 -5.566406 C 2.875 -8.023438 4.347656 -9.84375 6.714844 -9.84375 C 7.863281 -9.84375 8.808594 -9.40625 9.542969 -8.394531 L 10.691406 -9.449219 C 9.84375 -10.554688 8.644531 -11.382812 6.621094 -11.382812 C 3.3125 -11.382812 1.082031 -8.851562 1.082031 -5.566406 Z M 1.082031 -5.566406 "/></g></g><g style="fill:#545454;fill-opacity:1;"><g transform="translate(307.243779, 690.050025)"><path style="stroke:none" d="M 6.578125 0.277344 C 9.957031 0.277344 12.074219 -2.34375 12.074219 -5.566406 C 12.074219 -8.785156 9.957031 -11.382812 6.578125 -11.382812 C 3.195312 -11.382812 1.082031 -8.785156 1.082031 -5.566406 C 1.082031 -2.34375 3.195312 0.277344 6.578125 0.277344 Z M 6.578125 -1.265625 C 4.207031 -1.265625 2.875 -3.289062 2.875 -5.566406 C 2.875 -7.816406 4.207031 -9.84375 6.578125 -9.84375 C 8.945312 -9.84375 10.253906 -7.816406 10.253906 -5.566406 C 10.253906 -3.289062 8.945312 -1.265625 6.578125 -1.265625 Z M 6.578125 -1.265625 "/></g></g><g style="fill:#545454;fill-opacity:1;"><g transform="translate(320.395352, 690.050025)"><path style="stroke:none" d="M 16.855469 0 L 16.855469 -8.023438 C 16.855469 -10.253906 15.773438 -11.382812 13.75 -11.382812 C 12.140625 -11.382812 10.648438 -10.324219 10.027344 -9.3125 C 9.703125 -10.460938 8.738281 -11.382812 7.035156 -11.382812 C 5.402344 -11.382812 3.910156 -10.210938 3.449219 -9.496094 L 3.449219 -11.105469 L 1.726562 -11.105469 L 1.726562 0 L 3.449219 0 L 3.449219 -8.117188 C 4.046875 -9.015625 5.242188 -9.84375 6.371094 -9.84375 C 7.816406 -9.84375 8.417969 -8.945312 8.417969 -7.542969 L 8.417969 0 L 10.140625 0 L 10.140625 -8.140625 C 10.714844 -9.015625 11.933594 -9.84375 13.085938 -9.84375 C 14.511719 -9.84375 15.128906 -8.945312 15.128906 -7.542969 L 15.128906 0 Z M 16.855469 0 "/></g></g><g style="fill:#545454;fill-opacity:1;"><g transform="translate(81.000002, 721.550024)"><path style="stroke:none" d="M 6 0 L 6 -15.335938 L 4.324219 -15.335938 L 0.484375 -11.382812 L 1.632812 -10.210938 L 4.09375 -12.808594 L 4.09375 0 Z M 6 0 "/></g></g><g style="fill:#545454;fill-opacity:1;"><g transform="translate(88.794378, 721.550024)"><path style="stroke:none" d="M 11.773438 0 L 11.773438 -1.703125 L 4.253906 -1.703125 C 8.53125 -5.082031 11.703125 -7.933594 11.703125 -11.0625 C 11.703125 -14.117188 9.105469 -15.566406 6.554688 -15.566406 C 4.390625 -15.566406 2.390625 -14.695312 1.21875 -13.152344 L 2.390625 -11.933594 C 3.289062 -13.085938 4.714844 -13.867188 6.554688 -13.867188 C 8.140625 -13.867188 9.75 -13.015625 9.75 -11.0625 C 9.75 -8.417969 6.761719 -5.863281 1.242188 -1.519531 L 1.242188 0 Z M 11.773438 0 "/></g></g><g style="fill:#545454;fill-opacity:1;"><g transform="translate(102.313821, 721.550024)"><path style="stroke:none" d="M 0.667969 -2.253906 C 1.609375 -0.875 3.519531 0.277344 6.117188 0.277344 C 9.496094 0.277344 11.542969 -1.585938 11.542969 -4.140625 C 11.542969 -6.597656 9.40625 -7.796875 8.003906 -7.910156 C 9.449219 -8.164062 11.3125 -9.265625 11.3125 -11.472656 C 11.3125 -14.074219 9.058594 -15.566406 6.117188 -15.566406 C 3.75 -15.566406 1.976562 -14.53125 0.875 -13.199219 L 1.929688 -12.003906 C 3.058594 -13.222656 4.300781 -13.867188 5.980469 -13.867188 C 7.839844 -13.867188 9.40625 -12.945312 9.40625 -11.246094 C 9.40625 -9.472656 7.773438 -8.714844 5.839844 -8.714844 C 5.21875 -8.714844 4.507812 -8.714844 4.253906 -8.738281 L 4.253906 -6.992188 C 4.484375 -7.011719 5.195312 -7.011719 5.839844 -7.011719 C 8.09375 -7.011719 9.65625 -6.207031 9.65625 -4.300781 C 9.65625 -2.53125 8.300781 -1.425781 6.070312 -1.425781 C 4.253906 -1.425781 2.691406 -2.253906 1.792969 -3.449219 Z M 0.667969 -2.253906 "/></g></g><g style="fill:#545454;fill-opacity:1;"><g transform="translate(115.120503, 721.550024)"><path style="stroke:none" d="M 6.207031 -4.804688 L 6.207031 -6.324219 L 0.691406 -6.324219 L 0.691406 -4.804688 Z M 6.207031 -4.804688 "/></g></g><g style="fill:#545454;fill-opacity:1;"><g transform="translate(122.018177, 721.550024)"><path style="stroke:none" d="M 9.933594 0 L 9.933594 -3.886719 L 12.09375 -3.886719 L 12.09375 -5.566406 L 9.933594 -5.566406 L 9.933594 -15.335938 L 7.3125 -15.335938 L 0.734375 -5.472656 L 0.734375 -3.886719 L 8.023438 -3.886719 L 8.023438 0 Z M 8.023438 -5.566406 L 2.644531 -5.566406 L 8.023438 -13.566406 Z M 8.023438 -5.566406 "/></g></g><g style="fill:#545454;fill-opacity:1;"><g transform="translate(134.847851, 721.550024)"><path style="stroke:none" d="M 1.519531 -2.183594 C 2.667969 -0.667969 4.324219 0.277344 6.921875 0.277344 C 10.003906 0.277344 12.371094 -1.65625 12.371094 -4.78125 C 12.371094 -7.933594 10.046875 -9.679688 7.496094 -9.679688 C 5.957031 -9.679688 4.644531 -9.035156 3.910156 -8.300781 L 3.910156 -13.636719 L 11.382812 -13.636719 L 11.382812 -15.335938 L 2 -15.335938 L 2 -7.058594 L 3.402344 -6.578125 C 4.4375 -7.589844 5.585938 -8.023438 6.945312 -8.023438 C 9.015625 -8.023438 10.460938 -6.738281 10.460938 -4.714844 C 10.460938 -2.851562 9.015625 -1.425781 6.921875 -1.425781 C 5.035156 -1.425781 3.703125 -2.160156 2.691406 -3.449219 Z M 1.519531 -2.183594 "/></g></g><g style="fill:#545454;fill-opacity:1;"><g transform="translate(148.413276, 721.550024)"><path style="stroke:none" d="M 1.171875 -7.632812 C 1.171875 -3.472656 2.804688 0.277344 7.082031 0.277344 C 10.441406 0.277344 12.464844 -2.070312 12.464844 -4.738281 C 12.464844 -8.003906 10.210938 -9.636719 7.449219 -9.636719 C 5.472656 -9.636719 3.769531 -8.300781 3.105469 -7.242188 C 3.082031 -7.449219 3.082031 -7.632812 3.082031 -7.839844 C 3.082031 -10.855469 4.4375 -13.867188 7.40625 -13.867188 C 9.015625 -13.867188 9.910156 -13.222656 10.691406 -12.300781 L 11.660156 -13.726562 C 10.714844 -14.808594 9.382812 -15.566406 7.40625 -15.566406 C 3.105469 -15.566406 1.171875 -11.796875 1.171875 -7.632812 Z M 10.53125 -4.667969 C 10.53125 -3.195312 9.382812 -1.425781 7.011719 -1.425781 C 4.347656 -1.425781 3.335938 -3.769531 3.148438 -5.679688 C 4 -7.035156 5.472656 -7.980469 6.992188 -7.980469 C 8.96875 -7.980469 10.53125 -6.921875 10.53125 -4.667969 Z M 10.53125 -4.667969 "/></g></g><g style="fill:#545454;fill-opacity:1;"><g transform="translate(162.001692, 721.550024)"><path style="stroke:none" d="M 6.207031 -4.804688 L 6.207031 -6.324219 L 0.691406 -6.324219 L 0.691406 -4.804688 Z M 6.207031 -4.804688 "/></g></g><g style="fill:#545454;fill-opacity:1;"><g transform="translate(168.899366, 721.550024)"><path style="stroke:none" d="M 4.898438 0 L 11.175781 -14.027344 L 11.175781 -15.335938 L 0.710938 -15.335938 L 0.710938 -13.636719 L 8.96875 -13.636719 L 2.78125 0 Z M 4.898438 0 "/></g></g><g style="fill:#545454;fill-opacity:1;"><g transform="translate(180.740373, 721.550024)"><path style="stroke:none" d="M 1.195312 -3.886719 C 1.195312 -1.265625 3.65625 0.277344 6.691406 0.277344 C 9.703125 0.277344 12.1875 -1.289062 12.1875 -3.886719 C 12.1875 -5.933594 10.441406 -7.335938 8.53125 -7.910156 C 10.300781 -8.417969 11.957031 -9.566406 11.957031 -11.589844 C 11.957031 -14.347656 9.222656 -15.566406 6.691406 -15.566406 C 4.140625 -15.566406 1.449219 -14.347656 1.449219 -11.589844 C 1.449219 -9.566406 3.082031 -8.417969 4.851562 -7.910156 C 2.945312 -7.335938 1.195312 -5.933594 1.195312 -3.886719 Z M 10.027344 -11.335938 C 10.027344 -9.472656 7.632812 -8.851562 6.691406 -8.691406 C 5.773438 -8.851562 3.355469 -9.472656 3.355469 -11.335938 C 3.355469 -12.921875 4.828125 -13.867188 6.691406 -13.867188 C 8.53125 -13.867188 10.027344 -12.921875 10.027344 -11.335938 Z M 10.253906 -4.09375 C 10.253906 -2.4375 8.578125 -1.425781 6.691406 -1.425781 C 4.78125 -1.425781 3.105469 -2.4375 3.105469 -4.09375 C 3.105469 -6.09375 5.75 -6.945312 6.691406 -7.058594 C 7.632812 -6.945312 10.253906 -6.09375 10.253906 -4.09375 Z M 10.253906 -4.09375 "/></g></g><g style="fill:#545454;fill-opacity:1;"><g transform="translate(194.098866, 721.550024)"><path style="stroke:none" d="M 1.929688 -1.585938 C 2.898438 -0.484375 4.230469 0.253906 6.1875 0.253906 C 10.484375 0.253906 12.417969 -3.519531 12.417969 -7.65625 C 12.417969 -11.84375 10.785156 -15.589844 6.484375 -15.589844 C 3.148438 -15.589844 1.125 -13.222656 1.125 -10.578125 C 1.125 -7.3125 3.402344 -5.679688 6.164062 -5.679688 C 8.117188 -5.679688 9.820312 -7.011719 10.484375 -8.070312 C 10.507812 -7.863281 10.507812 -7.65625 10.507812 -7.449219 C 10.507812 -4.554688 9.289062 -1.449219 6.1875 -1.449219 C 4.597656 -1.449219 3.679688 -2.09375 2.898438 -3.011719 Z M 10.417969 -9.613281 C 9.613281 -8.253906 8.117188 -7.335938 6.597656 -7.335938 C 4.621094 -7.335938 3.058594 -8.394531 3.058594 -10.648438 C 3.058594 -12.09375 4.230469 -13.890625 6.578125 -13.890625 C 9.242188 -13.890625 10.253906 -11.519531 10.417969 -9.613281 Z M 10.417969 -9.613281 "/></g></g><g style="fill:#545454;fill-opacity:1;"><g transform="translate(207.687282, 721.550024)"><path style="stroke:none" d="M 1.171875 -7.65625 C 1.171875 -3.933594 2.828125 0.277344 7.035156 0.277344 C 11.222656 0.277344 12.898438 -3.933594 12.898438 -7.65625 C 12.898438 -11.40625 11.222656 -15.566406 7.035156 -15.566406 C 2.828125 -15.566406 1.171875 -11.40625 1.171875 -7.65625 Z M 10.945312 -7.65625 C 10.945312 -4.597656 9.957031 -1.425781 7.035156 -1.425781 C 4.117188 -1.425781 3.128906 -4.597656 3.128906 -7.65625 C 3.128906 -10.714844 4.117188 -13.867188 7.035156 -13.867188 C 9.957031 -13.867188 10.945312 -10.714844 10.945312 -7.65625 Z M 10.945312 -7.65625 "/></g></g><g style="fill:#ff009d;fill-opacity:1;"><g transform="translate(81.000002, 546.349913)"><path style="stroke:none" d="M 8.832031 0.277344 C 12.324219 0.277344 14.257812 -1.585938 15.359375 -3.496094 L 12.554688 -4.851562 C 11.910156 -3.585938 10.53125 -2.621094 8.832031 -2.621094 C 6.164062 -2.621094 4.140625 -4.761719 4.140625 -7.65625 C 4.140625 -10.554688 6.164062 -12.691406 8.832031 -12.691406 C 10.53125 -12.691406 11.910156 -11.703125 12.554688 -10.460938 L 15.359375 -11.84375 C 14.28125 -13.75 12.324219 -15.589844 8.832031 -15.589844 C 4.347656 -15.589844 0.78125 -12.371094 0.78125 -7.65625 C 0.78125 -2.945312 4.347656 0.277344 8.832031 0.277344 Z M 8.832031 0.277344 "/></g></g><g style="fill:#ff009d;fill-opacity:1;"><g transform="translate(96.33568, 546.349913)"><path style="stroke:none" d="M 6.597656 0.277344 C 10.277344 0.277344 12.484375 -2.390625 12.484375 -5.566406 C 12.484375 -8.714844 10.277344 -11.382812 6.597656 -11.382812 C 2.945312 -11.382812 0.734375 -8.714844 0.734375 -5.566406 C 0.734375 -2.390625 2.945312 0.277344 6.597656 0.277344 Z M 6.597656 -2.324219 C 4.78125 -2.324219 3.769531 -3.816406 3.769531 -5.566406 C 3.769531 -7.289062 4.78125 -8.785156 6.597656 -8.785156 C 8.417969 -8.785156 9.449219 -7.289062 9.449219 -5.566406 C 9.449219 -3.816406 8.417969 -2.324219 6.597656 -2.324219 Z M 6.597656 -2.324219 "/></g></g><g style="fill:#ff009d;fill-opacity:1;"><g transform="translate(109.073239, 546.349913)"><path style="stroke:none" d="M 11.867188 0 L 11.867188 -7.839844 C 11.867188 -10.003906 10.691406 -11.382812 8.253906 -11.382812 C 6.4375 -11.382812 5.082031 -10.507812 4.367188 -9.65625 L 4.367188 -11.105469 L 1.449219 -11.105469 L 1.449219 0 L 4.367188 0 L 4.367188 -7.472656 C 4.851562 -8.140625 5.75 -8.785156 6.898438 -8.785156 C 8.140625 -8.785156 8.945312 -8.253906 8.945312 -6.714844 L 8.945312 0 Z M 11.867188 0 "/></g></g><g style="fill:#ff009d;fill-opacity:1;"><g transform="translate(121.925755, 546.349913)"><path style="stroke:none" d="M 5.175781 0.277344 C 6.394531 0.277344 7.175781 -0.046875 7.613281 -0.4375 L 6.992188 -2.644531 C 6.828125 -2.484375 6.414062 -2.324219 5.980469 -2.324219 C 5.335938 -2.324219 4.96875 -2.851562 4.96875 -3.542969 L 4.96875 -8.554688 L 7.21875 -8.554688 L 7.21875 -11.105469 L 4.96875 -11.105469 L 4.96875 -14.140625 L 2.023438 -14.140625 L 2.023438 -11.105469 L 0.183594 -11.105469 L 0.183594 -8.554688 L 2.023438 -8.554688 L 2.023438 -2.757812 C 2.023438 -0.78125 3.128906 0.277344 5.175781 0.277344 Z M 5.175781 0.277344 "/></g></g><g style="fill:#ff009d;fill-opacity:1;"><g transform="translate(129.237144, 546.349913)"><path style="stroke:none" d="M 11.039062 0 L 11.039062 -7.175781 C 11.039062 -10.371094 8.714844 -11.382812 6.1875 -11.382812 C 4.4375 -11.382812 2.691406 -10.832031 1.332031 -9.636719 L 2.4375 -7.679688 C 3.378906 -8.554688 4.484375 -8.992188 5.679688 -8.992188 C 7.152344 -8.992188 8.117188 -8.253906 8.117188 -7.128906 L 8.117188 -5.585938 C 7.382812 -6.484375 6.070312 -6.945312 4.597656 -6.945312 C 2.828125 -6.945312 0.734375 -6 0.734375 -3.402344 C 0.734375 -0.917969 2.828125 0.277344 4.597656 0.277344 C 6.046875 0.277344 7.359375 -0.253906 8.117188 -1.148438 L 8.117188 0 Z M 8.117188 -2.667969 C 7.632812 -2.023438 6.714844 -1.703125 5.773438 -1.703125 C 4.621094 -1.703125 3.679688 -2.300781 3.679688 -3.335938 C 3.679688 -4.390625 4.621094 -5.011719 5.773438 -5.011719 C 6.714844 -5.011719 7.632812 -4.691406 8.117188 -4.046875 Z M 8.117188 -2.667969 "/></g></g><g style="fill:#ff009d;fill-opacity:1;"><g transform="translate(141.261943, 546.349913)"><path style="stroke:none" d="M 0.734375 -5.566406 C 0.734375 -2.136719 3.195312 0.277344 6.621094 0.277344 C 8.898438 0.277344 10.277344 -0.710938 11.015625 -1.746094 L 9.105469 -3.519531 C 8.578125 -2.78125 7.773438 -2.324219 6.761719 -2.324219 C 4.988281 -2.324219 3.75 -3.632812 3.75 -5.566406 C 3.75 -7.496094 4.988281 -8.785156 6.761719 -8.785156 C 7.773438 -8.785156 8.578125 -8.347656 9.105469 -7.589844 L 11.015625 -9.359375 C 10.277344 -10.394531 8.898438 -11.382812 6.621094 -11.382812 C 3.195312 -11.382812 0.734375 -8.96875 0.734375 -5.566406 Z M 0.734375 -5.566406 "/></g></g><g style="fill:#ff009d;fill-opacity:1;"><g transform="translate(152.275084, 546.349913)"><path style="stroke:none" d="M 5.175781 0.277344 C 6.394531 0.277344 7.175781 -0.046875 7.613281 -0.4375 L 6.992188 -2.644531 C 6.828125 -2.484375 6.414062 -2.324219 5.980469 -2.324219 C 5.335938 -2.324219 4.96875 -2.851562 4.96875 -3.542969 L 4.96875 -8.554688 L 7.21875 -8.554688 L 7.21875 -11.105469 L 4.96875 -11.105469 L 4.96875 -14.140625 L 2.023438 -14.140625 L 2.023438 -11.105469 L 0.183594 -11.105469 L 0.183594 -8.554688 L 2.023438 -8.554688 L 2.023438 -2.757812 C 2.023438 -0.78125 3.128906 0.277344 5.175781 0.277344 Z M 5.175781 0.277344 "/></g></g><g style="fill:#ff009d;fill-opacity:1;"><g transform="translate(159.586474, 546.349913)"><path style="stroke:none" d=""/></g></g><g style="fill:#ff009d;fill-opacity:1;"><g transform="translate(165.012495, 546.349913)"><path style="stroke:none" d="M 18.167969 0 L 18.167969 -8.023438 C 18.167969 -10.300781 16.949219 -11.382812 14.902344 -11.382812 C 13.199219 -11.382812 11.726562 -10.371094 11.082031 -9.359375 C 10.667969 -10.625 9.636719 -11.382812 8.003906 -11.382812 C 6.300781 -11.382812 4.828125 -10.324219 4.367188 -9.65625 L 4.367188 -11.105469 L 1.449219 -11.105469 L 1.449219 0 L 4.367188 0 L 4.367188 -7.472656 C 4.804688 -8.09375 5.65625 -8.785156 6.667969 -8.785156 C 7.863281 -8.785156 8.324219 -8.046875 8.324219 -7.011719 L 8.324219 0 L 11.265625 0 L 11.265625 -7.496094 C 11.679688 -8.09375 12.53125 -8.785156 13.566406 -8.785156 C 14.761719 -8.785156 15.222656 -8.046875 15.222656 -7.011719 L 15.222656 0 Z M 18.167969 0 "/></g></g><g style="fill:#ff009d;fill-opacity:1;"><g transform="translate(184.1419, 546.349913)"><path style="stroke:none" d="M 0.734375 -5.566406 C 0.734375 -2 3.289062 0.277344 6.667969 0.277344 C 8.394531 0.277344 10.117188 -0.230469 11.246094 -1.265625 L 9.957031 -3.148438 C 9.242188 -2.460938 8.023438 -2.046875 6.992188 -2.046875 C 5.105469 -2.046875 3.976562 -3.21875 3.792969 -4.621094 L 12.050781 -4.621094 L 12.050781 -5.265625 C 12.050781 -8.898438 9.796875 -11.382812 6.484375 -11.382812 C 3.105469 -11.382812 0.734375 -8.785156 0.734375 -5.566406 Z M 6.484375 -9.058594 C 8.417969 -9.058594 9.152344 -7.65625 9.222656 -6.597656 L 3.75 -6.597656 C 3.886719 -7.703125 4.667969 -9.058594 6.484375 -9.058594 Z M 6.484375 -9.058594 "/></g></g><g style="fill:#ff009d;fill-opacity:1;"><g transform="translate(196.396622, 546.349913)"><path style="stroke:none" d=""/></g></g><g style="fill:#ff009d;fill-opacity:1;"><g transform="translate(201.822644, 546.349913)"><path style="stroke:none" d="M 5.175781 0.277344 C 6.394531 0.277344 7.175781 -0.046875 7.613281 -0.4375 L 6.992188 -2.644531 C 6.828125 -2.484375 6.414062 -2.324219 5.980469 -2.324219 C 5.335938 -2.324219 4.96875 -2.851562 4.96875 -3.542969 L 4.96875 -8.554688 L 7.21875 -8.554688 L 7.21875 -11.105469 L 4.96875 -11.105469 L 4.96875 -14.140625 L 2.023438 -14.140625 L 2.023438 -11.105469 L 0.183594 -11.105469 L 0.183594 -8.554688 L 2.023438 -8.554688 L 2.023438 -2.757812 C 2.023438 -0.78125 3.128906 0.277344 5.175781 0.277344 Z M 5.175781 0.277344 "/></g></g><g style="fill:#ff009d;fill-opacity:1;"><g transform="translate(209.134033, 546.349913)"><path style="stroke:none" d="M 6.597656 0.277344 C 10.277344 0.277344 12.484375 -2.390625 12.484375 -5.566406 C 12.484375 -8.714844 10.277344 -11.382812 6.597656 -11.382812 C 2.945312 -11.382812 0.734375 -8.714844 0.734375 -5.566406 C 0.734375 -2.390625 2.945312 0.277344 6.597656 0.277344 Z M 6.597656 -2.324219 C 4.78125 -2.324219 3.769531 -3.816406 3.769531 -5.566406 C 3.769531 -7.289062 4.78125 -8.785156 6.597656 -8.785156 C 8.417969 -8.785156 9.449219 -7.289062 9.449219 -5.566406 C 9.449219 -3.816406 8.417969 -2.324219 6.597656 -2.324219 Z M 6.597656 -2.324219 "/></g></g><g style="fill:#ff009d;fill-opacity:1;"><g transform="translate(221.871593, 546.349913)"><path style="stroke:none" d=""/></g></g><g style="fill:#ff009d;fill-opacity:1;"><g transform="translate(227.297614, 546.349913)"><path style="stroke:none" d="M 4.367188 0 L 4.367188 -15.335938 L 1.449219 -15.335938 L 1.449219 0 Z M 4.367188 0 "/></g></g><g style="fill:#ff009d;fill-opacity:1;"><g transform="translate(232.654662, 546.349913)"><path style="stroke:none" d="M 0.734375 -5.566406 C 0.734375 -2 3.289062 0.277344 6.667969 0.277344 C 8.394531 0.277344 10.117188 -0.230469 11.246094 -1.265625 L 9.957031 -3.148438 C 9.242188 -2.460938 8.023438 -2.046875 6.992188 -2.046875 C 5.105469 -2.046875 3.976562 -3.21875 3.792969 -4.621094 L 12.050781 -4.621094 L 12.050781 -5.265625 C 12.050781 -8.898438 9.796875 -11.382812 6.484375 -11.382812 C 3.105469 -11.382812 0.734375 -8.785156 0.734375 -5.566406 Z M 6.484375 -9.058594 C 8.417969 -9.058594 9.152344 -7.65625 9.222656 -6.597656 L 3.75 -6.597656 C 3.886719 -7.703125 4.667969 -9.058594 6.484375 -9.058594 Z M 6.484375 -9.058594 "/></g></g><g style="fill:#ff009d;fill-opacity:1;"><g transform="translate(244.909384, 546.349913)"><path style="stroke:none" d="M 11.039062 0 L 11.039062 -7.175781 C 11.039062 -10.371094 8.714844 -11.382812 6.1875 -11.382812 C 4.4375 -11.382812 2.691406 -10.832031 1.332031 -9.636719 L 2.4375 -7.679688 C 3.378906 -8.554688 4.484375 -8.992188 5.679688 -8.992188 C 7.152344 -8.992188 8.117188 -8.253906 8.117188 -7.128906 L 8.117188 -5.585938 C 7.382812 -6.484375 6.070312 -6.945312 4.597656 -6.945312 C 2.828125 -6.945312 0.734375 -6 0.734375 -3.402344 C 0.734375 -0.917969 2.828125 0.277344 4.597656 0.277344 C 6.046875 0.277344 7.359375 -0.253906 8.117188 -1.148438 L 8.117188 0 Z M 8.117188 -2.667969 C 7.632812 -2.023438 6.714844 -1.703125 5.773438 -1.703125 C 4.621094 -1.703125 3.679688 -2.300781 3.679688 -3.335938 C 3.679688 -4.390625 4.621094 -5.011719 5.773438 -5.011719 C 6.714844 -5.011719 7.632812 -4.691406 8.117188 -4.046875 Z M 8.117188 -2.667969 "/></g></g><g style="fill:#ff009d;fill-opacity:1;"><g transform="translate(256.934183, 546.349913)"><path style="stroke:none" d="M 4.367188 0 L 4.367188 -7.335938 C 4.851562 -8.046875 6.140625 -8.578125 7.105469 -8.578125 C 7.425781 -8.578125 7.703125 -8.554688 7.910156 -8.507812 L 7.910156 -11.359375 C 6.53125 -11.359375 5.152344 -10.578125 4.367188 -9.589844 L 4.367188 -11.105469 L 1.449219 -11.105469 L 1.449219 0 Z M 4.367188 0 "/></g></g><g style="fill:#ff009d;fill-opacity:1;"><g transform="translate(264.751401, 546.349913)"><path style="stroke:none" d="M 11.867188 0 L 11.867188 -7.839844 C 11.867188 -10.003906 10.691406 -11.382812 8.253906 -11.382812 C 6.4375 -11.382812 5.082031 -10.507812 4.367188 -9.65625 L 4.367188 -11.105469 L 1.449219 -11.105469 L 1.449219 0 L 4.367188 0 L 4.367188 -7.472656 C 4.851562 -8.140625 5.75 -8.785156 6.898438 -8.785156 C 8.140625 -8.785156 8.945312 -8.253906 8.945312 -6.714844 L 8.945312 0 Z M 11.867188 0 "/></g></g><g style="fill:#ff009d;fill-opacity:1;"><g transform="translate(277.603905, 546.349913)"><path style="stroke:none" d=""/></g></g><g style="fill:#ff009d;fill-opacity:1;"><g transform="translate(283.029938, 546.349913)"><path style="stroke:none" d="M 18.167969 0 L 18.167969 -8.023438 C 18.167969 -10.300781 16.949219 -11.382812 14.902344 -11.382812 C 13.199219 -11.382812 11.726562 -10.371094 11.082031 -9.359375 C 10.667969 -10.625 9.636719 -11.382812 8.003906 -11.382812 C 6.300781 -11.382812 4.828125 -10.324219 4.367188 -9.65625 L 4.367188 -11.105469 L 1.449219 -11.105469 L 1.449219 0 L 4.367188 0 L 4.367188 -7.472656 C 4.804688 -8.09375 5.65625 -8.785156 6.667969 -8.785156 C 7.863281 -8.785156 8.324219 -8.046875 8.324219 -7.011719 L 8.324219 0 L 11.265625 0 L 11.265625 -7.496094 C 11.679688 -8.09375 12.53125 -8.785156 13.566406 -8.785156 C 14.761719 -8.785156 15.222656 -8.046875 15.222656 -7.011719 L 15.222656 0 Z M 18.167969 0 "/></g></g><g style="fill:#ff009d;fill-opacity:1;"><g transform="translate(302.159354, 546.349913)"><path style="stroke:none" d="M 6.597656 0.277344 C 10.277344 0.277344 12.484375 -2.390625 12.484375 -5.566406 C 12.484375 -8.714844 10.277344 -11.382812 6.597656 -11.382812 C 2.945312 -11.382812 0.734375 -8.714844 0.734375 -5.566406 C 0.734375 -2.390625 2.945312 0.277344 6.597656 0.277344 Z M 6.597656 -2.324219 C 4.78125 -2.324219 3.769531 -3.816406 3.769531 -5.566406 C 3.769531 -7.289062 4.78125 -8.785156 6.597656 -8.785156 C 8.417969 -8.785156 9.449219 -7.289062 9.449219 -5.566406 C 9.449219 -3.816406 8.417969 -2.324219 6.597656 -2.324219 Z M 6.597656 -2.324219 "/></g></g><g style="fill:#ff009d;fill-opacity:1;"><g transform="translate(314.896902, 546.349913)"><path style="stroke:none" d="M 4.367188 0 L 4.367188 -7.335938 C 4.851562 -8.046875 6.140625 -8.578125 7.105469 -8.578125 C 7.425781 -8.578125 7.703125 -8.554688 7.910156 -8.507812 L 7.910156 -11.359375 C 6.53125 -11.359375 5.152344 -10.578125 4.367188 -9.589844 L 4.367188 -11.105469 L 1.449219 -11.105469 L 1.449219 0 Z M 4.367188 0 "/></g></g><g style="fill:#ff009d;fill-opacity:1;"><g transform="translate(322.714132, 546.349913)"><path style="stroke:none" d="M 0.734375 -5.566406 C 0.734375 -2 3.289062 0.277344 6.667969 0.277344 C 8.394531 0.277344 10.117188 -0.230469 11.246094 -1.265625 L 9.957031 -3.148438 C 9.242188 -2.460938 8.023438 -2.046875 6.992188 -2.046875 C 5.105469 -2.046875 3.976562 -3.21875 3.792969 -4.621094 L 12.050781 -4.621094 L 12.050781 -5.265625 C 12.050781 -8.898438 9.796875 -11.382812 6.484375 -11.382812 C 3.105469 -11.382812 0.734375 -8.785156 0.734375 -5.566406 Z M 6.484375 -9.058594 C 8.417969 -9.058594 9.152344 -7.65625 9.222656 -6.597656 L 3.75 -6.597656 C 3.886719 -7.703125 4.667969 -9.058594 6.484375 -9.058594 Z M 6.484375 -9.058594 "/></g></g><g style="fill:#000000;fill-opacity:1;"><g transform="translate(81.000002, 577.649991)"><path style="stroke:none" d="M 12.371094 0 L 12.371094 -2.828125 L 4.78125 -2.828125 L 4.78125 -6.394531 L 12.210938 -6.394531 L 12.210938 -9.199219 L 4.78125 -9.199219 L 4.78125 -12.53125 L 12.371094 -12.53125 L 12.371094 -15.335938 L 1.519531 -15.335938 L 1.519531 0 Z M 12.371094 0 "/></g></g><g style="fill:#000000;fill-opacity:1;"><g transform="translate(94.404489, 577.649991)"><path style="stroke:none" d="M 0.484375 -1.449219 C 1.65625 -0.367188 3.519531 0.277344 5.449219 0.277344 C 8.53125 0.277344 10.253906 -1.242188 10.253906 -3.289062 C 10.253906 -6.046875 7.703125 -6.554688 5.792969 -6.921875 C 4.554688 -7.175781 3.679688 -7.425781 3.679688 -8.117188 C 3.679688 -8.761719 4.367188 -9.152344 5.425781 -9.152344 C 6.785156 -9.152344 8.046875 -8.578125 8.714844 -7.863281 L 9.863281 -9.863281 C 8.785156 -10.738281 7.289062 -11.382812 5.402344 -11.382812 C 2.484375 -11.382812 0.851562 -9.75 0.851562 -7.886719 C 0.851562 -5.242188 3.3125 -4.78125 5.21875 -4.414062 C 6.484375 -4.160156 7.449219 -3.886719 7.449219 -3.105469 C 7.449219 -2.414062 6.851562 -1.976562 5.585938 -1.976562 C 4.207031 -1.976562 2.550781 -2.738281 1.746094 -3.496094 Z M 0.484375 -1.449219 "/></g></g><g style="fill:#000000;fill-opacity:1;"><g transform="translate(105.371796, 577.649991)"><path style="stroke:none" d="M 5.175781 0.277344 C 6.394531 0.277344 7.175781 -0.046875 7.613281 -0.4375 L 6.992188 -2.644531 C 6.828125 -2.484375 6.414062 -2.324219 5.980469 -2.324219 C 5.335938 -2.324219 4.96875 -2.851562 4.96875 -3.542969 L 4.96875 -8.554688 L 7.21875 -8.554688 L 7.21875 -11.105469 L 4.96875 -11.105469 L 4.96875 -14.140625 L 2.023438 -14.140625 L 2.023438 -11.105469 L 0.183594 -11.105469 L 0.183594 -8.554688 L 2.023438 -8.554688 L 2.023438 -2.757812 C 2.023438 -0.78125 3.128906 0.277344 5.175781 0.277344 Z M 5.175781 0.277344 "/></g></g><g style="fill:#000000;fill-opacity:1;"><g transform="translate(113.143181, 577.649991)"><path style="stroke:none" d="M 0.734375 -5.566406 C 0.734375 -2 3.289062 0.277344 6.667969 0.277344 C 8.394531 0.277344 10.117188 -0.230469 11.246094 -1.265625 L 9.957031 -3.148438 C 9.242188 -2.460938 8.023438 -2.046875 6.992188 -2.046875 C 5.105469 -2.046875 3.976562 -3.21875 3.792969 -4.621094 L 12.050781 -4.621094 L 12.050781 -5.265625 C 12.050781 -8.898438 9.796875 -11.382812 6.484375 -11.382812 C 3.105469 -11.382812 0.734375 -8.785156 0.734375 -5.566406 Z M 6.484375 -9.058594 C 8.417969 -9.058594 9.152344 -7.65625 9.222656 -6.597656 L 3.75 -6.597656 C 3.886719 -7.703125 4.667969 -9.058594 6.484375 -9.058594 Z M 6.484375 -9.058594 "/></g></g><g style="fill:#000000;fill-opacity:1;"><g transform="translate(125.857898, 577.649991)"><path style="stroke:none" d="M 4.367188 0 L 4.367188 -15.335938 L 1.449219 -15.335938 L 1.449219 0 Z M 4.367188 0 "/></g></g><g style="fill:#000000;fill-opacity:1;"><g transform="translate(131.674941, 577.649991)"><path style="stroke:none" d="M 4.367188 0 L 4.367188 -15.335938 L 1.449219 -15.335938 L 1.449219 0 Z M 4.367188 0 "/></g></g><g style="fill:#000000;fill-opacity:1;"><g transform="translate(137.491984, 577.649991)"><path style="stroke:none" d="M 0.734375 -5.566406 C 0.734375 -2 3.289062 0.277344 6.667969 0.277344 C 8.394531 0.277344 10.117188 -0.230469 11.246094 -1.265625 L 9.957031 -3.148438 C 9.242188 -2.460938 8.023438 -2.046875 6.992188 -2.046875 C 5.105469 -2.046875 3.976562 -3.21875 3.792969 -4.621094 L 12.050781 -4.621094 L 12.050781 -5.265625 C 12.050781 -8.898438 9.796875 -11.382812 6.484375 -11.382812 C 3.105469 -11.382812 0.734375 -8.785156 0.734375 -5.566406 Z M 6.484375 -9.058594 C 8.417969 -9.058594 9.152344 -7.65625 9.222656 -6.597656 L 3.75 -6.597656 C 3.886719 -7.703125 4.667969 -9.058594 6.484375 -9.058594 Z M 6.484375 -9.058594 "/></g></g><g style="fill:#000000;fill-opacity:1;"><g transform="translate(150.206701, 577.649991)"><path style="stroke:none" d=""/></g></g><g style="fill:#000000;fill-opacity:1;"><g transform="translate(156.092718, 577.649991)"><path style="stroke:none" d="M 7.566406 0 C 12.371094 0 15.707031 -3.035156 15.707031 -7.65625 C 15.707031 -12.28125 12.371094 -15.335938 7.566406 -15.335938 L 1.519531 -15.335938 L 1.519531 0 Z M 4.78125 -12.464844 L 7.566406 -12.464844 C 10.714844 -12.464844 12.371094 -10.371094 12.371094 -7.65625 C 12.371094 -5.058594 10.601562 -2.875 7.566406 -2.875 L 4.78125 -2.875 Z M 4.78125 -12.464844 "/></g></g><g style="fill:#000000;fill-opacity:1;"><g transform="translate(172.601152, 577.649991)"><path style="stroke:none" d="M 11.039062 0 L 11.039062 -7.175781 C 11.039062 -10.371094 8.714844 -11.382812 6.1875 -11.382812 C 4.4375 -11.382812 2.691406 -10.832031 1.332031 -9.636719 L 2.4375 -7.679688 C 3.378906 -8.554688 4.484375 -8.992188 5.679688 -8.992188 C 7.152344 -8.992188 8.117188 -8.253906 8.117188 -7.128906 L 8.117188 -5.585938 C 7.382812 -6.484375 6.070312 -6.945312 4.597656 -6.945312 C 2.828125 -6.945312 0.734375 -6 0.734375 -3.402344 C 0.734375 -0.917969 2.828125 0.277344 4.597656 0.277344 C 6.046875 0.277344 7.359375 -0.253906 8.117188 -1.148438 L 8.117188 0 Z M 8.117188 -2.667969 C 7.632812 -2.023438 6.714844 -1.703125 5.773438 -1.703125 C 4.621094 -1.703125 3.679688 -2.300781 3.679688 -3.335938 C 3.679688 -4.390625 4.621094 -5.011719 5.773438 -5.011719 C 6.714844 -5.011719 7.632812 -4.691406 8.117188 -4.046875 Z M 8.117188 -2.667969 "/></g></g><g style="fill:#000000;fill-opacity:1;"><g transform="translate(185.085946, 577.649991)"><path style="stroke:none" d="M 4.367188 0 L 4.367188 -7.335938 C 4.851562 -8.046875 6.140625 -8.578125 7.105469 -8.578125 C 7.425781 -8.578125 7.703125 -8.554688 7.910156 -8.507812 L 7.910156 -11.359375 C 6.53125 -11.359375 5.152344 -10.578125 4.367188 -9.589844 L 4.367188 -11.105469 L 1.449219 -11.105469 L 1.449219 0 Z M 4.367188 0 "/></g></g><g style="fill:#000000;fill-opacity:1;"><g transform="translate(193.363159, 577.649991)"><path style="stroke:none" d="M 0.734375 -5.566406 C 0.734375 -2.136719 3.195312 0.277344 6.621094 0.277344 C 8.898438 0.277344 10.277344 -0.710938 11.015625 -1.746094 L 9.105469 -3.519531 C 8.578125 -2.78125 7.773438 -2.324219 6.761719 -2.324219 C 4.988281 -2.324219 3.75 -3.632812 3.75 -5.566406 C 3.75 -7.496094 4.988281 -8.785156 6.761719 -8.785156 C 7.773438 -8.785156 8.578125 -8.347656 9.105469 -7.589844 L 11.015625 -9.359375 C 10.277344 -10.394531 8.898438 -11.382812 6.621094 -11.382812 C 3.195312 -11.382812 0.734375 -8.96875 0.734375 -5.566406 Z M 0.734375 -5.566406 "/></g></g><g style="fill:#000000;fill-opacity:1;"><g transform="translate(204.836296, 577.649991)"><path style="stroke:none" d="M 1.058594 4.347656 C 1.425781 4.4375 2.160156 4.507812 2.507812 4.507812 C 4.414062 4.460938 5.886719 3.910156 6.714844 1.816406 L 11.933594 -11.105469 L 8.785156 -11.105469 L 5.886719 -3.378906 L 2.988281 -11.105469 L -0.136719 -11.105469 L 4.367188 0.160156 L 3.957031 1.105469 C 3.679688 1.703125 3.171875 1.910156 2.414062 1.910156 C 2.136719 1.910156 1.746094 1.839844 1.496094 1.726562 Z M 1.058594 4.347656 "/></g></g><g style="fill:#000000;fill-opacity:1;"><g transform="translate(81.000002, 609.149989)"><path style="stroke:none" d="M 0.460938 -2.160156 C 1.910156 -0.710938 4.023438 0.277344 6.96875 0.277344 C 11.105469 0.277344 13.105469 -1.839844 13.105469 -4.644531 C 13.105469 -8.046875 9.886719 -8.808594 7.359375 -9.382812 C 5.585938 -9.796875 4.300781 -10.117188 4.300781 -11.152344 C 4.300781 -12.074219 5.082031 -12.714844 6.554688 -12.714844 C 8.046875 -12.714844 9.703125 -12.1875 10.945312 -11.039062 L 12.761719 -13.429688 C 11.246094 -14.832031 9.222656 -15.566406 6.785156 -15.566406 C 3.171875 -15.566406 0.964844 -13.5 0.964844 -10.945312 C 0.964844 -7.519531 4.183594 -6.828125 6.691406 -6.253906 C 8.460938 -5.839844 9.796875 -5.449219 9.796875 -4.300781 C 9.796875 -3.425781 8.921875 -2.574219 7.128906 -2.574219 C 5.011719 -2.574219 3.335938 -3.519531 2.253906 -4.644531 Z M 0.460938 -2.160156 "/></g></g><g style="fill:#000000;fill-opacity:1;"><g transform="translate(94.795351, 609.149989)"><path style="stroke:none" d="M 9.910156 0 L 15.820312 -15.335938 L 12.09375 -15.335938 L 7.863281 -3.542969 L 3.609375 -15.335938 L -0.113281 -15.335938 L 5.816406 0 Z M 9.910156 0 "/></g></g><g style="fill:#000000;fill-opacity:1;"><g transform="translate(110.52205, 609.149989)"><path style="stroke:none" d="M 4.78125 0 L 4.78125 -5.496094 L 8.691406 -5.496094 C 12.003906 -5.496094 13.84375 -7.726562 13.84375 -10.394531 C 13.84375 -13.085938 12.027344 -15.335938 8.691406 -15.335938 L 1.519531 -15.335938 L 1.519531 0 Z M 10.507812 -10.417969 C 10.507812 -9.128906 9.542969 -8.300781 8.253906 -8.300781 L 4.78125 -8.300781 L 4.78125 -12.53125 L 8.253906 -12.53125 C 9.542969 -12.53125 10.507812 -11.679688 10.507812 -10.417969 Z M 10.507812 -10.417969 "/></g></g><g style="fill:#000000;fill-opacity:1;"><g transform="translate(124.86922, 609.149989)"><path style="stroke:none" d=""/></g></g><g style="fill:#000000;fill-opacity:1;"><g transform="translate(130.755237, 609.149989)"><path style="stroke:none" d="M 6.597656 0.277344 C 10.277344 0.277344 12.484375 -2.390625 12.484375 -5.566406 C 12.484375 -8.714844 10.277344 -11.382812 6.597656 -11.382812 C 2.945312 -11.382812 0.734375 -8.714844 0.734375 -5.566406 C 0.734375 -2.390625 2.945312 0.277344 6.597656 0.277344 Z M 6.597656 -2.324219 C 4.78125 -2.324219 3.769531 -3.816406 3.769531 -5.566406 C 3.769531 -7.289062 4.78125 -8.785156 6.597656 -8.785156 C 8.417969 -8.785156 9.449219 -7.289062 9.449219 -5.566406 C 9.449219 -3.816406 8.417969 -2.324219 6.597656 -2.324219 Z M 6.597656 -2.324219 "/></g></g><g style="fill:#000000;fill-opacity:1;"><g transform="translate(143.952792, 609.149989)"><path style="stroke:none" d="M 7.289062 -8.554688 L 7.289062 -11.105469 L 5.035156 -11.105469 L 5.035156 -11.660156 C 5.035156 -12.714844 5.585938 -13.269531 6.414062 -13.269531 C 6.761719 -13.269531 7.105469 -13.199219 7.359375 -13.039062 L 7.957031 -15.109375 C 7.425781 -15.382812 6.667969 -15.566406 5.839844 -15.566406 C 3.65625 -15.566406 2.09375 -14.117188 2.09375 -11.703125 L 2.09375 -11.105469 L 0.253906 -11.105469 L 0.253906 -8.554688 L 2.09375 -8.554688 L 2.09375 0 L 5.035156 0 L 5.035156 -8.554688 Z M 7.289062 -8.554688 "/></g></g><g style="fill:#000000;fill-opacity:1;"><g transform="translate(151.471263, 609.149989)"><path style="stroke:none" d=""/></g></g><g style="fill:#000000;fill-opacity:1;"><g transform="translate(157.357279, 609.149989)"><path style="stroke:none" d="M 7.566406 0 C 12.371094 0 15.707031 -3.035156 15.707031 -7.65625 C 15.707031 -12.28125 12.371094 -15.335938 7.566406 -15.335938 L 1.519531 -15.335938 L 1.519531 0 Z M 4.78125 -12.464844 L 7.566406 -12.464844 C 10.714844 -12.464844 12.371094 -10.371094 12.371094 -7.65625 C 12.371094 -5.058594 10.601562 -2.875 7.566406 -2.875 L 4.78125 -2.875 Z M 4.78125 -12.464844 "/></g></g><g style="fill:#000000;fill-opacity:1;"><g transform="translate(173.865713, 609.149989)"><path style="stroke:none" d="M 0.734375 -5.566406 C 0.734375 -2 3.289062 0.277344 6.667969 0.277344 C 8.394531 0.277344 10.117188 -0.230469 11.246094 -1.265625 L 9.957031 -3.148438 C 9.242188 -2.460938 8.023438 -2.046875 6.992188 -2.046875 C 5.105469 -2.046875 3.976562 -3.21875 3.792969 -4.621094 L 12.050781 -4.621094 L 12.050781 -5.265625 C 12.050781 -8.898438 9.796875 -11.382812 6.484375 -11.382812 C 3.105469 -11.382812 0.734375 -8.785156 0.734375 -5.566406 Z M 6.484375 -9.058594 C 8.417969 -9.058594 9.152344 -7.65625 9.222656 -6.597656 L 3.75 -6.597656 C 3.886719 -7.703125 4.667969 -9.058594 6.484375 -9.058594 Z M 6.484375 -9.058594 "/></g></g><g style="fill:#000000;fill-opacity:1;"><g transform="translate(186.58043, 609.149989)"><path style="stroke:none" d="M 0.484375 -1.449219 C 1.65625 -0.367188 3.519531 0.277344 5.449219 0.277344 C 8.53125 0.277344 10.253906 -1.242188 10.253906 -3.289062 C 10.253906 -6.046875 7.703125 -6.554688 5.792969 -6.921875 C 4.554688 -7.175781 3.679688 -7.425781 3.679688 -8.117188 C 3.679688 -8.761719 4.367188 -9.152344 5.425781 -9.152344 C 6.785156 -9.152344 8.046875 -8.578125 8.714844 -7.863281 L 9.863281 -9.863281 C 8.785156 -10.738281 7.289062 -11.382812 5.402344 -11.382812 C 2.484375 -11.382812 0.851562 -9.75 0.851562 -7.886719 C 0.851562 -5.242188 3.3125 -4.78125 5.21875 -4.414062 C 6.484375 -4.160156 7.449219 -3.886719 7.449219 -3.105469 C 7.449219 -2.414062 6.851562 -1.976562 5.585938 -1.976562 C 4.207031 -1.976562 2.550781 -2.738281 1.746094 -3.496094 Z M 0.484375 -1.449219 "/></g></g><g style="fill:#000000;fill-opacity:1;"><g transform="translate(197.547737, 609.149989)"><path style="stroke:none" d="M 2.898438 -12.738281 C 3.863281 -12.738281 4.644531 -13.519531 4.644531 -14.488281 C 4.644531 -15.453125 3.863281 -16.234375 2.898438 -16.234375 C 1.953125 -16.234375 1.148438 -15.453125 1.148438 -14.488281 C 1.148438 -13.519531 1.953125 -12.738281 2.898438 -12.738281 Z M 4.367188 0 L 4.367188 -11.105469 L 1.449219 -11.105469 L 1.449219 0 Z M 4.367188 0 "/></g></g><g style="fill:#000000;fill-opacity:1;"><g transform="translate(203.36478, 609.149989)"><path style="stroke:none" d="M 1.21875 2.851562 C 2.597656 4.070312 4.09375 4.507812 6 4.507812 C 8.738281 4.507812 12.003906 3.472656 12.003906 -0.757812 L 12.003906 -11.105469 L 9.058594 -11.105469 L 9.058594 -9.679688 C 8.164062 -10.808594 6.96875 -11.382812 5.632812 -11.382812 C 2.828125 -11.382812 0.734375 -9.359375 0.734375 -5.726562 C 0.734375 -2.023438 2.851562 -0.0703125 5.632812 -0.0703125 C 6.992188 -0.0703125 8.1875 -0.710938 9.058594 -1.816406 L 9.058594 -0.691406 C 9.058594 1.496094 7.40625 2.117188 6 2.117188 C 4.597656 2.117188 3.425781 1.726562 2.53125 0.734375 Z M 9.058594 -3.933594 C 8.578125 -3.21875 7.519531 -2.667969 6.554688 -2.667969 C 4.898438 -2.667969 3.75 -3.816406 3.75 -5.726562 C 3.75 -7.632812 4.898438 -8.785156 6.554688 -8.785156 C 7.519531 -8.785156 8.578125 -8.253906 9.058594 -7.519531 Z M 9.058594 -3.933594 "/></g></g><g style="fill:#000000;fill-opacity:1;"><g transform="translate(216.81525, 609.149989)"><path style="stroke:none" d="M 11.867188 0 L 11.867188 -7.839844 C 11.867188 -10.003906 10.691406 -11.382812 8.253906 -11.382812 C 6.4375 -11.382812 5.082031 -10.507812 4.367188 -9.65625 L 4.367188 -11.105469 L 1.449219 -11.105469 L 1.449219 0 L 4.367188 0 L 4.367188 -7.472656 C 4.851562 -8.140625 5.75 -8.785156 6.898438 -8.785156 C 8.140625 -8.785156 8.945312 -8.253906 8.945312 -6.714844 L 8.945312 0 Z M 11.867188 0 "/></g></g></g></svg>