<svg xmlns="http://www.w3.org/2000/svg" xmlns:xlink="http://www.w3.org/1999/xlink" width="1920" zoomAndPan="magnify" viewBox="0 0 1440 809.999993" height="1080" preserveAspectRatio="xMidYMid meet" version="1.2"><defs><clipPath id="70fdbd0244"><path d="M 0 0 L 1440 0 L 1440 13.894531 L 0 13.894531 Z M 1425.808594 13.894531 L 1440 13.894531 L 1440 795.808594 L 1425.808594 795.808594 Z M 0 13.894531 L 13.894531 13.894531 L 13.894531 795.808594 L 0 795.808594 Z M 0 795.808594 L 1440 795.808594 L 1440 810 L 0 810 Z M 0 795.808594 "/></clipPath></defs><g id="c3cecc3fe7"><rect x="0" width="1440" y="0" height="809.999993" style="fill:#ffffff;fill-opacity:1;stroke:none;"/><rect x="0" width="1440" y="0" height="809.999993" style="fill:#f2f2f0;fill-opacity:1;stroke:none;"/><g clip-rule="nonzero" clip-path="url(#70fdbd0244)"><rect x="0" width="1440" y="0" height="809.999993" style="fill:#fdfdfd;fill-opacity:1;stroke:none;"/></g><g style="fill:#000000;fill-opacity:1;"><g transform="translate(219.591514, 371.425079)"><path style="stroke:none" d="M 23.039062 0.71875 C 32.160156 0.71875 37.199219 -4.140625 40.078125 -9.121094 L 32.761719 -12.660156 C 31.078125 -9.359375 27.480469 -6.839844 23.039062 -6.839844 C 16.078125 -6.839844 10.800781 -12.421875 10.800781 -19.980469 C 10.800781 -27.539062 16.078125 -33.121094 23.039062 -33.121094 C 27.480469 -33.121094 31.078125 -30.539062 32.761719 -27.300781 L 40.078125 -30.898438 C 37.261719 -35.878906 32.160156 -40.679688 23.039062 -40.679688 C 11.339844 -40.679688 2.039062 -32.28125 2.039062 -19.980469 C 2.039062 -7.679688 11.339844 0.71875 23.039062 0.71875 Z M 23.039062 0.71875 "/></g></g><g style="fill:#000000;fill-opacity:1;"><g transform="translate(259.311471, 371.425079)"><path style="stroke:none" d="M 17.21875 0.71875 C 26.820312 0.71875 32.578125 -6.238281 32.578125 -14.519531 C 32.578125 -22.738281 26.820312 -29.699219 17.21875 -29.699219 C 7.679688 -29.699219 1.921875 -22.738281 1.921875 -14.519531 C 1.921875 -6.238281 7.679688 0.71875 17.21875 0.71875 Z M 17.21875 -6.058594 C 12.480469 -6.058594 9.839844 -9.960938 9.839844 -14.519531 C 9.839844 -19.019531 12.480469 -22.921875 17.21875 -22.921875 C 21.960938 -22.921875 24.660156 -19.019531 24.660156 -14.519531 C 24.660156 -9.960938 21.960938 -6.058594 17.21875 -6.058594 Z M 17.21875 -6.058594 "/></g></g><g style="fill:#000000;fill-opacity:1;"><g transform="translate(292.251433, 371.425079)"><path style="stroke:none" d="M 47.398438 0 L 47.398438 -20.941406 C 47.398438 -26.878906 44.21875 -29.699219 38.878906 -29.699219 C 34.441406 -29.699219 30.601562 -27.058594 28.921875 -24.421875 C 27.839844 -27.71875 25.140625 -29.699219 20.878906 -29.699219 C 16.441406 -29.699219 12.601562 -26.941406 11.398438 -25.199219 L 11.398438 -28.980469 L 3.78125 -28.980469 L 3.78125 0 L 11.398438 0 L 11.398438 -19.5 C 12.539062 -21.121094 14.761719 -22.921875 17.398438 -22.921875 C 20.519531 -22.921875 21.71875 -21 21.71875 -18.300781 L 21.71875 0 L 29.398438 0 L 29.398438 -19.558594 C 30.480469 -21.121094 32.699219 -22.921875 35.398438 -22.921875 C 38.519531 -22.921875 39.71875 -21 39.71875 -18.300781 L 39.71875 0 Z M 47.398438 0 "/></g></g><g style="fill:#000000;fill-opacity:1;"><g transform="translate(341.871388, 371.425079)"><path style="stroke:none" d="M 11.398438 -3.71875 C 13.738281 -0.71875 16.921875 0.71875 20.339844 0.71875 C 27.78125 0.71875 33.179688 -4.859375 33.179688 -14.519531 C 33.179688 -24.179688 27.78125 -29.699219 20.339844 -29.699219 C 16.800781 -29.699219 13.621094 -28.140625 11.398438 -25.320312 L 11.398438 -28.980469 L 3.78125 -28.980469 L 3.78125 11.039062 L 11.398438 11.039062 Z M 25.261719 -14.519531 C 25.261719 -9.480469 22.320312 -6.058594 17.941406 -6.058594 C 15.480469 -6.058594 12.660156 -7.558594 11.398438 -9.359375 L 11.398438 -19.621094 C 12.660156 -21.480469 15.480469 -22.921875 17.941406 -22.921875 C 22.320312 -22.921875 25.261719 -19.5 25.261719 -14.519531 Z M 25.261719 -14.519531 "/></g></g><g style="fill:#000000;fill-opacity:1;"><g transform="translate(375.471354, 371.425079)"><path style="stroke:none" d="M 1.921875 -14.519531 C 1.921875 -5.21875 8.578125 0.71875 17.398438 0.71875 C 21.898438 0.71875 26.398438 -0.601562 29.339844 -3.300781 L 25.980469 -8.21875 C 24.121094 -6.421875 20.941406 -5.339844 18.238281 -5.339844 C 13.320312 -5.339844 10.378906 -8.398438 9.898438 -12.058594 L 31.441406 -12.058594 L 31.441406 -13.738281 C 31.441406 -23.21875 25.558594 -29.699219 16.921875 -29.699219 C 8.101562 -29.699219 1.921875 -22.921875 1.921875 -14.519531 Z M 16.921875 -23.640625 C 21.960938 -23.640625 23.878906 -19.980469 24.058594 -17.21875 L 9.78125 -17.21875 C 10.140625 -20.101562 12.179688 -23.640625 16.921875 -23.640625 Z M 16.921875 -23.640625 "/></g></g><g style="fill:#000000;fill-opacity:1;"><g transform="translate(407.151323, 371.425079)"><path style="stroke:none" d="M 13.5 0.71875 C 16.679688 0.71875 18.71875 -0.121094 19.859375 -1.140625 L 18.238281 -6.898438 C 17.820312 -6.480469 16.738281 -6.058594 15.601562 -6.058594 C 13.921875 -6.058594 12.960938 -7.441406 12.960938 -9.238281 L 12.960938 -22.320312 L 18.839844 -22.320312 L 18.839844 -28.980469 L 12.960938 -28.980469 L 12.960938 -36.898438 L 5.28125 -36.898438 L 5.28125 -28.980469 L 0.480469 -28.980469 L 0.480469 -22.320312 L 5.28125 -22.320312 L 5.28125 -7.199219 C 5.28125 -2.039062 8.160156 0.71875 13.5 0.71875 Z M 13.5 0.71875 "/></g></g><g style="fill:#000000;fill-opacity:1;"><g transform="translate(425.931316, 371.425079)"><path style="stroke:none" d="M 7.558594 -33.238281 C 10.078125 -33.238281 12.121094 -35.28125 12.121094 -37.800781 C 12.121094 -40.320312 10.078125 -42.359375 7.558594 -42.359375 C 5.101562 -42.359375 3 -40.320312 3 -37.800781 C 3 -35.28125 5.101562 -33.238281 7.558594 -33.238281 Z M 11.398438 0 L 11.398438 -28.980469 L 3.78125 -28.980469 L 3.78125 0 Z M 11.398438 0 "/></g></g><g style="fill:#000000;fill-opacity:1;"><g transform="translate(439.611286, 371.425079)"><path style="stroke:none" d="M 13.5 0.71875 C 16.679688 0.71875 18.71875 -0.121094 19.859375 -1.140625 L 18.238281 -6.898438 C 17.820312 -6.480469 16.738281 -6.058594 15.601562 -6.058594 C 13.921875 -6.058594 12.960938 -7.441406 12.960938 -9.238281 L 12.960938 -22.320312 L 18.839844 -22.320312 L 18.839844 -28.980469 L 12.960938 -28.980469 L 12.960938 -36.898438 L 5.28125 -36.898438 L 5.28125 -28.980469 L 0.480469 -28.980469 L 0.480469 -22.320312 L 5.28125 -22.320312 L 5.28125 -7.199219 C 5.28125 -2.039062 8.160156 0.71875 13.5 0.71875 Z M 13.5 0.71875 "/></g></g><g style="fill:#000000;fill-opacity:1;"><g transform="translate(458.391268, 371.425079)"><path style="stroke:none" d="M 7.558594 -33.238281 C 10.078125 -33.238281 12.121094 -35.28125 12.121094 -37.800781 C 12.121094 -40.320312 10.078125 -42.359375 7.558594 -42.359375 C 5.101562 -42.359375 3 -40.320312 3 -37.800781 C 3 -35.28125 5.101562 -33.238281 7.558594 -33.238281 Z M 11.398438 0 L 11.398438 -28.980469 L 3.78125 -28.980469 L 3.78125 0 Z M 11.398438 0 "/></g></g><g style="fill:#000000;fill-opacity:1;"><g transform="translate(472.071238, 371.425079)"><path style="stroke:none" d="M 17.21875 0.71875 C 26.820312 0.71875 32.578125 -6.238281 32.578125 -14.519531 C 32.578125 -22.738281 26.820312 -29.699219 17.21875 -29.699219 C 7.679688 -29.699219 1.921875 -22.738281 1.921875 -14.519531 C 1.921875 -6.238281 7.679688 0.71875 17.21875 0.71875 Z M 17.21875 -6.058594 C 12.480469 -6.058594 9.839844 -9.960938 9.839844 -14.519531 C 9.839844 -19.019531 12.480469 -22.921875 17.21875 -22.921875 C 21.960938 -22.921875 24.660156 -19.019531 24.660156 -14.519531 C 24.660156 -9.960938 21.960938 -6.058594 17.21875 -6.058594 Z M 17.21875 -6.058594 "/></g></g><g style="fill:#000000;fill-opacity:1;"><g transform="translate(505.011223, 371.425079)"><path style="stroke:none" d="M 30.960938 0 L 30.960938 -20.460938 C 30.960938 -26.101562 27.898438 -29.699219 21.539062 -29.699219 C 16.800781 -29.699219 13.261719 -27.421875 11.398438 -25.199219 L 11.398438 -28.980469 L 3.78125 -28.980469 L 3.78125 0 L 11.398438 0 L 11.398438 -19.5 C 12.660156 -21.238281 15 -22.921875 18 -22.921875 C 21.238281 -22.921875 23.339844 -21.539062 23.339844 -17.519531 L 23.339844 0 Z M 30.960938 0 "/></g></g><g style="fill:#000000;fill-opacity:1;"><g transform="translate(538.251181, 371.425079)"><path style="stroke:none" d=""/></g></g><g style="fill:#000000;fill-opacity:1;"><g transform="translate(552.111165, 371.425079)"><path style="stroke:none" d="M 7.558594 -33.238281 C 10.078125 -33.238281 12.121094 -35.28125 12.121094 -37.800781 C 12.121094 -40.320312 10.078125 -42.359375 7.558594 -42.359375 C 5.101562 -42.359375 3 -40.320312 3 -37.800781 C 3 -35.28125 5.101562 -33.238281 7.558594 -33.238281 Z M 11.398438 0 L 11.398438 -28.980469 L 3.78125 -28.980469 L 3.78125 0 Z M 11.398438 0 "/></g></g><g style="fill:#000000;fill-opacity:1;"><g transform="translate(565.791157, 371.425079)"><path style="stroke:none" d="M 1.261719 -3.78125 C 4.320312 -0.960938 9.179688 0.71875 14.21875 0.71875 C 22.261719 0.71875 26.761719 -3.238281 26.761719 -8.578125 C 26.761719 -15.78125 20.101562 -17.101562 15.121094 -18.058594 C 11.878906 -18.71875 9.601562 -19.378906 9.601562 -21.179688 C 9.601562 -22.859375 11.398438 -23.878906 14.160156 -23.878906 C 17.699219 -23.878906 21 -22.378906 22.738281 -20.519531 L 25.738281 -25.738281 C 22.921875 -28.019531 19.019531 -29.699219 14.101562 -29.699219 C 6.480469 -29.699219 2.21875 -25.441406 2.21875 -20.578125 C 2.21875 -13.679688 8.640625 -12.480469 13.621094 -11.519531 C 16.921875 -10.859375 19.441406 -10.140625 19.441406 -8.101562 C 19.441406 -6.300781 17.878906 -5.160156 14.578125 -5.160156 C 10.980469 -5.160156 6.660156 -7.140625 4.558594 -9.121094 Z M 1.261719 -3.78125 "/></g></g><g style="fill:#000000;fill-opacity:1;"><g transform="translate(592.911113, 371.425079)"><path style="stroke:none" d=""/></g></g><g style="fill:#000000;fill-opacity:1;"><g transform="translate(606.771121, 371.425079)"><path style="stroke:none" d="M 19.019531 -22.320312 L 19.019531 -28.980469 L 13.140625 -28.980469 L 13.140625 -30.421875 C 13.140625 -33.179688 14.578125 -34.621094 16.738281 -34.621094 C 17.640625 -34.621094 18.539062 -34.441406 19.199219 -34.019531 L 20.761719 -39.421875 C 19.378906 -40.140625 17.398438 -40.621094 15.238281 -40.621094 C 9.539062 -40.621094 5.460938 -36.839844 5.460938 -30.539062 L 5.460938 -28.980469 L 0.660156 -28.980469 L 0.660156 -22.320312 L 5.460938 -22.320312 L 5.460938 0 L 13.140625 0 L 13.140625 -22.320312 Z M 19.019531 -22.320312 "/></g></g><g style="fill:#000000;fill-opacity:1;"><g transform="translate(624.891054, 371.425079)"><path style="stroke:none" d="M 7.558594 -33.238281 C 10.078125 -33.238281 12.121094 -35.28125 12.121094 -37.800781 C 12.121094 -40.320312 10.078125 -42.359375 7.558594 -42.359375 C 5.101562 -42.359375 3 -40.320312 3 -37.800781 C 3 -35.28125 5.101562 -33.238281 7.558594 -33.238281 Z M 11.398438 0 L 11.398438 -28.980469 L 3.78125 -28.980469 L 3.78125 0 Z M 11.398438 0 "/></g></g><g style="fill:#000000;fill-opacity:1;"><g transform="translate(638.571045, 371.425079)"><path style="stroke:none" d="M 1.921875 -14.519531 C 1.921875 -5.21875 8.578125 0.71875 17.398438 0.71875 C 21.898438 0.71875 26.398438 -0.601562 29.339844 -3.300781 L 25.980469 -8.21875 C 24.121094 -6.421875 20.941406 -5.339844 18.238281 -5.339844 C 13.320312 -5.339844 10.378906 -8.398438 9.898438 -12.058594 L 31.441406 -12.058594 L 31.441406 -13.738281 C 31.441406 -23.21875 25.558594 -29.699219 16.921875 -29.699219 C 8.101562 -29.699219 1.921875 -22.921875 1.921875 -14.519531 Z M 16.921875 -23.640625 C 21.960938 -23.640625 23.878906 -19.980469 24.058594 -17.21875 L 9.78125 -17.21875 C 10.140625 -20.101562 12.179688 -23.640625 16.921875 -23.640625 Z M 16.921875 -23.640625 "/></g></g><g style="fill:#000000;fill-opacity:1;"><g transform="translate(670.251036, 371.425079)"><path style="stroke:none" d="M 11.398438 0 L 11.398438 -19.140625 C 12.660156 -21 16.019531 -22.378906 18.539062 -22.378906 C 19.378906 -22.378906 20.101562 -22.320312 20.640625 -22.199219 L 20.640625 -29.640625 C 17.039062 -29.640625 13.441406 -27.601562 11.398438 -25.019531 L 11.398438 -28.980469 L 3.78125 -28.980469 L 3.78125 0 Z M 11.398438 0 "/></g></g><g style="fill:#000000;fill-opacity:1;"><g transform="translate(690.350981, 371.425079)"><path style="stroke:none" d="M 1.921875 -14.519531 C 1.921875 -5.578125 8.339844 0.71875 17.28125 0.71875 C 23.21875 0.71875 26.820312 -1.859375 28.738281 -4.558594 L 23.761719 -9.179688 C 22.378906 -7.261719 20.28125 -6.058594 17.640625 -6.058594 C 13.019531 -6.058594 9.78125 -9.480469 9.78125 -14.519531 C 9.78125 -19.558594 13.019531 -22.921875 17.640625 -22.921875 C 20.28125 -22.921875 22.378906 -21.78125 23.761719 -19.800781 L 28.738281 -24.421875 C 26.820312 -27.121094 23.21875 -29.699219 17.28125 -29.699219 C 8.339844 -29.699219 1.921875 -23.398438 1.921875 -14.519531 Z M 1.921875 -14.519531 "/></g></g><g style="fill:#000000;fill-opacity:1;"><g transform="translate(718.790966, 371.425079)"><path style="stroke:none" d="M 1.921875 -14.519531 C 1.921875 -5.21875 8.578125 0.71875 17.398438 0.71875 C 21.898438 0.71875 26.398438 -0.601562 29.339844 -3.300781 L 25.980469 -8.21875 C 24.121094 -6.421875 20.941406 -5.339844 18.238281 -5.339844 C 13.320312 -5.339844 10.378906 -8.398438 9.898438 -12.058594 L 31.441406 -12.058594 L 31.441406 -13.738281 C 31.441406 -23.21875 25.558594 -29.699219 16.921875 -29.699219 C 8.101562 -29.699219 1.921875 -22.921875 1.921875 -14.519531 Z M 16.921875 -23.640625 C 21.960938 -23.640625 23.878906 -19.980469 24.058594 -17.21875 L 9.78125 -17.21875 C 10.140625 -20.101562 12.179688 -23.640625 16.921875 -23.640625 Z M 16.921875 -23.640625 "/></g></g><g style="fill:#000000;fill-opacity:1;"><g transform="translate(750.470957, 371.425079)"><path style="stroke:none" d="M 6.71875 8.21875 C 10.378906 5.578125 12.898438 1.558594 12.898438 -2.941406 C 12.898438 -6.839844 10.320312 -9.058594 7.5 -9.058594 C 4.980469 -9.058594 2.820312 -6.898438 2.820312 -4.261719 C 2.820312 -1.679688 4.621094 0.121094 6.898438 0.121094 C 7.320312 0.121094 7.859375 0 8.039062 -0.0585938 C 7.558594 2.039062 5.339844 4.5 3.421875 5.519531 Z M 6.71875 8.21875 "/></g></g><g style="fill:#000000;fill-opacity:1;"><g transform="translate(764.330942, 371.425079)"><path style="stroke:none" d=""/></g></g><g style="fill:#000000;fill-opacity:1;"><g transform="translate(778.190926, 371.425079)"><path style="stroke:none" d="M 28.800781 0 L 28.800781 -18.71875 C 28.800781 -27.058594 22.738281 -29.699219 16.140625 -29.699219 C 11.578125 -29.699219 7.019531 -28.261719 3.480469 -25.140625 L 6.359375 -20.039062 C 8.820312 -22.320312 11.699219 -23.460938 14.820312 -23.460938 C 18.660156 -23.460938 21.179688 -21.539062 21.179688 -18.601562 L 21.179688 -14.578125 C 19.261719 -16.921875 15.839844 -18.121094 12 -18.121094 C 7.378906 -18.121094 1.921875 -15.660156 1.921875 -8.878906 C 1.921875 -2.398438 7.378906 0.71875 12 0.71875 C 15.78125 0.71875 19.199219 -0.660156 21.179688 -3 L 21.179688 0 Z M 21.179688 -6.960938 C 19.921875 -5.28125 17.519531 -4.441406 15.058594 -4.441406 C 12.058594 -4.441406 9.601562 -6 9.601562 -8.699219 C 9.601562 -11.460938 12.058594 -13.078125 15.058594 -13.078125 C 17.519531 -13.078125 19.921875 -12.238281 21.179688 -10.558594 Z M 21.179688 -6.960938 "/></g></g><g style="fill:#000000;fill-opacity:1;"><g transform="translate(809.27088, 371.425079)"><path style="stroke:none" d="M 30.960938 0 L 30.960938 -20.460938 C 30.960938 -26.101562 27.898438 -29.699219 21.539062 -29.699219 C 16.800781 -29.699219 13.261719 -27.421875 11.398438 -25.199219 L 11.398438 -28.980469 L 3.78125 -28.980469 L 3.78125 0 L 11.398438 0 L 11.398438 -19.5 C 12.660156 -21.238281 15 -22.921875 18 -22.921875 C 21.238281 -22.921875 23.339844 -21.539062 23.339844 -17.519531 L 23.339844 0 Z M 30.960938 0 "/></g></g><g style="fill:#000000;fill-opacity:1;"><g transform="translate(842.510838, 371.425079)"><path style="stroke:none" d="M 31.378906 0 L 31.378906 -40.019531 L 23.699219 -40.019531 L 23.699219 -25.261719 C 21.421875 -28.199219 18.179688 -29.699219 14.761719 -29.699219 C 7.378906 -29.699219 1.921875 -23.941406 1.921875 -14.460938 C 1.921875 -4.800781 7.441406 0.71875 14.761719 0.71875 C 18.238281 0.71875 21.421875 -0.839844 23.699219 -3.660156 L 23.699219 0 Z M 23.699219 -9.359375 C 22.378906 -7.441406 19.679688 -6.058594 17.101562 -6.058594 C 12.78125 -6.058594 9.78125 -9.480469 9.78125 -14.460938 C 9.78125 -19.5 12.78125 -22.921875 17.101562 -22.921875 C 19.679688 -22.921875 22.378906 -21.539062 23.699219 -19.621094 Z M 23.699219 -9.359375 "/></g></g><g style="fill:#000000;fill-opacity:1;"><g transform="translate(876.170794, 371.425079)"><path style="stroke:none" d=""/></g></g><g style="fill:#000000;fill-opacity:1;"><g transform="translate(890.030779, 371.425079)"><path style="stroke:none" d="M 47.398438 0 L 47.398438 -20.941406 C 47.398438 -26.878906 44.21875 -29.699219 38.878906 -29.699219 C 34.441406 -29.699219 30.601562 -27.058594 28.921875 -24.421875 C 27.839844 -27.71875 25.140625 -29.699219 20.878906 -29.699219 C 16.441406 -29.699219 12.601562 -26.941406 11.398438 -25.199219 L 11.398438 -28.980469 L 3.78125 -28.980469 L 3.78125 0 L 11.398438 0 L 11.398438 -19.5 C 12.539062 -21.121094 14.761719 -22.921875 17.398438 -22.921875 C 20.519531 -22.921875 21.71875 -21 21.71875 -18.300781 L 21.71875 0 L 29.398438 0 L 29.398438 -19.558594 C 30.480469 -21.121094 32.699219 -22.921875 35.398438 -22.921875 C 38.519531 -22.921875 39.71875 -21 39.71875 -18.300781 L 39.71875 0 Z M 47.398438 0 "/></g></g><g style="fill:#000000;fill-opacity:1;"><g transform="translate(939.650756, 371.425079)"><path style="stroke:none" d="M 17.21875 0.71875 C 26.820312 0.71875 32.578125 -6.238281 32.578125 -14.519531 C 32.578125 -22.738281 26.820312 -29.699219 17.21875 -29.699219 C 7.679688 -29.699219 1.921875 -22.738281 1.921875 -14.519531 C 1.921875 -6.238281 7.679688 0.71875 17.21875 0.71875 Z M 17.21875 -6.058594 C 12.480469 -6.058594 9.839844 -9.960938 9.839844 -14.519531 C 9.839844 -19.019531 12.480469 -22.921875 17.21875 -22.921875 C 21.960938 -22.921875 24.660156 -19.019531 24.660156 -14.519531 C 24.660156 -9.960938 21.960938 -6.058594 17.21875 -6.058594 Z M 17.21875 -6.058594 "/></g></g><g style="fill:#000000;fill-opacity:1;"><g transform="translate(972.590741, 371.425079)"><path style="stroke:none" d="M 1.261719 -3.78125 C 4.320312 -0.960938 9.179688 0.71875 14.21875 0.71875 C 22.261719 0.71875 26.761719 -3.238281 26.761719 -8.578125 C 26.761719 -15.78125 20.101562 -17.101562 15.121094 -18.058594 C 11.878906 -18.71875 9.601562 -19.378906 9.601562 -21.179688 C 9.601562 -22.859375 11.398438 -23.878906 14.160156 -23.878906 C 17.699219 -23.878906 21 -22.378906 22.738281 -20.519531 L 25.738281 -25.738281 C 22.921875 -28.019531 19.019531 -29.699219 14.101562 -29.699219 C 6.480469 -29.699219 2.21875 -25.441406 2.21875 -20.578125 C 2.21875 -13.679688 8.640625 -12.480469 13.621094 -11.519531 C 16.921875 -10.859375 19.441406 -10.140625 19.441406 -8.101562 C 19.441406 -6.300781 17.878906 -5.160156 14.578125 -5.160156 C 10.980469 -5.160156 6.660156 -7.140625 4.558594 -9.121094 Z M 1.261719 -3.78125 "/></g></g><g style="fill:#000000;fill-opacity:1;"><g transform="translate(999.710674, 371.425079)"><path style="stroke:none" d="M 13.5 0.71875 C 16.679688 0.71875 18.71875 -0.121094 19.859375 -1.140625 L 18.238281 -6.898438 C 17.820312 -6.480469 16.738281 -6.058594 15.601562 -6.058594 C 13.921875 -6.058594 12.960938 -7.441406 12.960938 -9.238281 L 12.960938 -22.320312 L 18.839844 -22.320312 L 18.839844 -28.980469 L 12.960938 -28.980469 L 12.960938 -36.898438 L 5.28125 -36.898438 L 5.28125 -28.980469 L 0.480469 -28.980469 L 0.480469 -22.320312 L 5.28125 -22.320312 L 5.28125 -7.199219 C 5.28125 -2.039062 8.160156 0.71875 13.5 0.71875 Z M 13.5 0.71875 "/></g></g><g style="fill:#000000;fill-opacity:1;"><g transform="translate(1018.490702, 371.425079)"><path style="stroke:none" d=""/></g></g><g style="fill:#000000;fill-opacity:1;"><g transform="translate(1032.350687, 371.425079)"><path style="stroke:none" d="M 11.398438 -3.71875 C 13.738281 -0.71875 16.921875 0.71875 20.339844 0.71875 C 27.78125 0.71875 33.179688 -4.859375 33.179688 -14.519531 C 33.179688 -24.179688 27.78125 -29.699219 20.339844 -29.699219 C 16.800781 -29.699219 13.621094 -28.140625 11.398438 -25.320312 L 11.398438 -28.980469 L 3.78125 -28.980469 L 3.78125 11.039062 L 11.398438 11.039062 Z M 25.261719 -14.519531 C 25.261719 -9.480469 22.320312 -6.058594 17.941406 -6.058594 C 15.480469 -6.058594 12.660156 -7.558594 11.398438 -9.359375 L 11.398438 -19.621094 C 12.660156 -21.480469 15.480469 -22.921875 17.941406 -22.921875 C 22.320312 -22.921875 25.261719 -19.5 25.261719 -14.519531 Z M 25.261719 -14.519531 "/></g></g><g style="fill:#000000;fill-opacity:1;"><g transform="translate(1065.95063, 371.425079)"><path style="stroke:none" d="M 11.398438 0 L 11.398438 -40.019531 L 3.78125 -40.019531 L 3.78125 0 Z M 11.398438 0 "/></g></g><g style="fill:#000000;fill-opacity:1;"><g transform="translate(1079.630622, 371.425079)"><path style="stroke:none" d="M 28.800781 0 L 28.800781 -18.71875 C 28.800781 -27.058594 22.738281 -29.699219 16.140625 -29.699219 C 11.578125 -29.699219 7.019531 -28.261719 3.480469 -25.140625 L 6.359375 -20.039062 C 8.820312 -22.320312 11.699219 -23.460938 14.820312 -23.460938 C 18.660156 -23.460938 21.179688 -21.539062 21.179688 -18.601562 L 21.179688 -14.578125 C 19.261719 -16.921875 15.839844 -18.121094 12 -18.121094 C 7.378906 -18.121094 1.921875 -15.660156 1.921875 -8.878906 C 1.921875 -2.398438 7.378906 0.71875 12 0.71875 C 15.78125 0.71875 19.199219 -0.660156 21.179688 -3 L 21.179688 0 Z M 21.179688 -6.960938 C 19.921875 -5.28125 17.519531 -4.441406 15.058594 -4.441406 C 12.058594 -4.441406 9.601562 -6 9.601562 -8.699219 C 9.601562 -11.460938 12.058594 -13.078125 15.058594 -13.078125 C 17.519531 -13.078125 19.921875 -12.238281 21.179688 -10.558594 Z M 21.179688 -6.960938 "/></g></g><g style="fill:#000000;fill-opacity:1;"><g transform="translate(1110.710576, 371.425079)"><path style="stroke:none" d="M 2.761719 11.339844 C 3.71875 11.578125 5.640625 11.761719 6.539062 11.761719 C 11.519531 11.640625 15.359375 10.199219 17.519531 4.738281 L 31.140625 -28.980469 L 22.921875 -28.980469 L 15.359375 -8.820312 L 7.800781 -28.980469 L -0.359375 -28.980469 L 11.398438 0.421875 L 10.320312 2.878906 C 9.601562 4.441406 8.28125 4.980469 6.300781 4.980469 C 5.578125 4.980469 4.558594 4.800781 3.898438 4.5 Z M 2.761719 11.339844 "/></g></g><g style="fill:#000000;fill-opacity:1;"><g transform="translate(1139.990513, 371.425079)"><path style="stroke:none" d="M 1.921875 -14.519531 C 1.921875 -5.21875 8.578125 0.71875 17.398438 0.71875 C 21.898438 0.71875 26.398438 -0.601562 29.339844 -3.300781 L 25.980469 -8.21875 C 24.121094 -6.421875 20.941406 -5.339844 18.238281 -5.339844 C 13.320312 -5.339844 10.378906 -8.398438 9.898438 -12.058594 L 31.441406 -12.058594 L 31.441406 -13.738281 C 31.441406 -23.21875 25.558594 -29.699219 16.921875 -29.699219 C 8.101562 -29.699219 1.921875 -22.921875 1.921875 -14.519531 Z M 16.921875 -23.640625 C 21.960938 -23.640625 23.878906 -19.980469 24.058594 -17.21875 L 9.78125 -17.21875 C 10.140625 -20.101562 12.179688 -23.640625 16.921875 -23.640625 Z M 16.921875 -23.640625 "/></g></g><g style="fill:#000000;fill-opacity:1;"><g transform="translate(1171.670503, 371.425079)"><path style="stroke:none" d="M 11.398438 0 L 11.398438 -19.140625 C 12.660156 -21 16.019531 -22.378906 18.539062 -22.378906 C 19.378906 -22.378906 20.101562 -22.320312 20.640625 -22.199219 L 20.640625 -29.640625 C 17.039062 -29.640625 13.441406 -27.601562 11.398438 -25.019531 L 11.398438 -28.980469 L 3.78125 -28.980469 L 3.78125 0 Z M 11.398438 0 "/></g></g><g style="fill:#000000;fill-opacity:1;"><g transform="translate(1191.770448, 371.425079)"><path style="stroke:none" d="M 1.261719 -3.78125 C 4.320312 -0.960938 9.179688 0.71875 14.21875 0.71875 C 22.261719 0.71875 26.761719 -3.238281 26.761719 -8.578125 C 26.761719 -15.78125 20.101562 -17.101562 15.121094 -18.058594 C 11.878906 -18.71875 9.601562 -19.378906 9.601562 -21.179688 C 9.601562 -22.859375 11.398438 -23.878906 14.160156 -23.878906 C 17.699219 -23.878906 21 -22.378906 22.738281 -20.519531 L 25.738281 -25.738281 C 22.921875 -28.019531 19.019531 -29.699219 14.101562 -29.699219 C 6.480469 -29.699219 2.21875 -25.441406 2.21875 -20.578125 C 2.21875 -13.679688 8.640625 -12.480469 13.621094 -11.519531 C 16.921875 -10.859375 19.441406 -10.140625 19.441406 -8.101562 C 19.441406 -6.300781 17.878906 -5.160156 14.578125 -5.160156 C 10.980469 -5.160156 6.660156 -7.140625 4.558594 -9.121094 Z M 1.261719 -3.78125 "/></g></g><g style="fill:#000000;fill-opacity:1;"><g transform="translate(233.923544, 437.425076)"><path style="stroke:none" d="M 31.019531 0 L 31.019531 -20.578125 C 31.019531 -26.21875 27.960938 -29.699219 21.601562 -29.699219 C 16.859375 -29.699219 13.261719 -27.421875 11.398438 -25.199219 L 11.398438 -40.019531 L 3.78125 -40.019531 L 3.78125 0 L 11.398438 0 L 11.398438 -19.5 C 12.71875 -21.238281 15.058594 -22.921875 18 -22.921875 C 21.300781 -22.921875 23.398438 -21.660156 23.398438 -17.640625 L 23.398438 0 Z M 31.019531 0 "/></g></g><g style="fill:#000000;fill-opacity:1;"><g transform="translate(267.223515, 437.425076)"><path style="stroke:none" d="M 28.800781 0 L 28.800781 -18.71875 C 28.800781 -27.058594 22.738281 -29.699219 16.140625 -29.699219 C 11.578125 -29.699219 7.019531 -28.261719 3.480469 -25.140625 L 6.359375 -20.039062 C 8.820312 -22.320312 11.699219 -23.460938 14.820312 -23.460938 C 18.660156 -23.460938 21.179688 -21.539062 21.179688 -18.601562 L 21.179688 -14.578125 C 19.261719 -16.921875 15.839844 -18.121094 12 -18.121094 C 7.378906 -18.121094 1.921875 -15.660156 1.921875 -8.878906 C 1.921875 -2.398438 7.378906 0.71875 12 0.71875 C 15.78125 0.71875 19.199219 -0.660156 21.179688 -3 L 21.179688 0 Z M 21.179688 -6.960938 C 19.921875 -5.28125 17.519531 -4.441406 15.058594 -4.441406 C 12.058594 -4.441406 9.601562 -6 9.601562 -8.699219 C 9.601562 -11.460938 12.058594 -13.078125 15.058594 -13.078125 C 17.519531 -13.078125 19.921875 -12.238281 21.179688 -10.558594 Z M 21.179688 -6.960938 "/></g></g><g style="fill:#000000;fill-opacity:1;"><g transform="translate(298.303481, 437.425076)"><path style="stroke:none" d="M 19.5 0 L 31.140625 -28.980469 L 22.921875 -28.980469 L 15.359375 -8.820312 L 7.800781 -28.980469 L -0.359375 -28.980469 L 11.28125 0 Z M 19.5 0 "/></g></g><g style="fill:#000000;fill-opacity:1;"><g transform="translate(327.583452, 437.425076)"><path style="stroke:none" d="M 1.921875 -14.519531 C 1.921875 -5.21875 8.578125 0.71875 17.398438 0.71875 C 21.898438 0.71875 26.398438 -0.601562 29.339844 -3.300781 L 25.980469 -8.21875 C 24.121094 -6.421875 20.941406 -5.339844 18.238281 -5.339844 C 13.320312 -5.339844 10.378906 -8.398438 9.898438 -12.058594 L 31.441406 -12.058594 L 31.441406 -13.738281 C 31.441406 -23.21875 25.558594 -29.699219 16.921875 -29.699219 C 8.101562 -29.699219 1.921875 -22.921875 1.921875 -14.519531 Z M 16.921875 -23.640625 C 21.960938 -23.640625 23.878906 -19.980469 24.058594 -17.21875 L 9.78125 -17.21875 C 10.140625 -20.101562 12.179688 -23.640625 16.921875 -23.640625 Z M 16.921875 -23.640625 "/></g></g><g style="fill:#000000;fill-opacity:1;"><g transform="translate(359.267292, 437.425076)"><path style="stroke:none" d=""/></g></g><g style="fill:#000000;fill-opacity:1;"><g transform="translate(373.127276, 437.425076)"><path style="stroke:none" d=""/></g></g><g style="fill:#000000;fill-opacity:1;"><g transform="translate(386.993853, 437.425076)"><path style="stroke:none" d="M 47.398438 0 L 47.398438 -20.941406 C 47.398438 -26.878906 44.21875 -29.699219 38.878906 -29.699219 C 34.441406 -29.699219 30.601562 -27.058594 28.921875 -24.421875 C 27.839844 -27.71875 25.140625 -29.699219 20.878906 -29.699219 C 16.441406 -29.699219 12.601562 -26.941406 11.398438 -25.199219 L 11.398438 -28.980469 L 3.78125 -28.980469 L 3.78125 0 L 11.398438 0 L 11.398438 -19.5 C 12.539062 -21.121094 14.761719 -22.921875 17.398438 -22.921875 C 20.519531 -22.921875 21.71875 -21 21.71875 -18.300781 L 21.71875 0 L 29.398438 0 L 29.398438 -19.558594 C 30.480469 -21.121094 32.699219 -22.921875 35.398438 -22.921875 C 38.519531 -22.921875 39.71875 -21 39.71875 -18.300781 L 39.71875 0 Z M 47.398438 0 "/></g></g><g style="fill:#000000;fill-opacity:1;"><g transform="translate(436.613807, 437.425076)"><path style="stroke:none" d="M 17.21875 0.71875 C 26.820312 0.71875 32.578125 -6.238281 32.578125 -14.519531 C 32.578125 -22.738281 26.820312 -29.699219 17.21875 -29.699219 C 7.679688 -29.699219 1.921875 -22.738281 1.921875 -14.519531 C 1.921875 -6.238281 7.679688 0.71875 17.21875 0.71875 Z M 17.21875 -6.058594 C 12.480469 -6.058594 9.839844 -9.960938 9.839844 -14.519531 C 9.839844 -19.019531 12.480469 -22.921875 17.21875 -22.921875 C 21.960938 -22.921875 24.660156 -19.019531 24.660156 -14.519531 C 24.660156 -9.960938 21.960938 -6.058594 17.21875 -6.058594 Z M 17.21875 -6.058594 "/></g></g><g style="fill:#000000;fill-opacity:1;"><g transform="translate(469.55377, 437.425076)"><path style="stroke:none" d="M 31.378906 0 L 31.378906 -40.019531 L 23.699219 -40.019531 L 23.699219 -25.261719 C 21.421875 -28.199219 18.179688 -29.699219 14.761719 -29.699219 C 7.378906 -29.699219 1.921875 -23.941406 1.921875 -14.460938 C 1.921875 -4.800781 7.441406 0.71875 14.761719 0.71875 C 18.238281 0.71875 21.421875 -0.839844 23.699219 -3.660156 L 23.699219 0 Z M 23.699219 -9.359375 C 22.378906 -7.441406 19.679688 -6.058594 17.101562 -6.058594 C 12.78125 -6.058594 9.78125 -9.480469 9.78125 -14.460938 C 9.78125 -19.5 12.78125 -22.921875 17.101562 -22.921875 C 19.679688 -22.921875 22.378906 -21.539062 23.699219 -19.621094 Z M 23.699219 -9.359375 "/></g></g><g style="fill:#000000;fill-opacity:1;"><g transform="translate(503.213737, 437.425076)"><path style="stroke:none" d="M 1.921875 -14.519531 C 1.921875 -5.21875 8.578125 0.71875 17.398438 0.71875 C 21.898438 0.71875 26.398438 -0.601562 29.339844 -3.300781 L 25.980469 -8.21875 C 24.121094 -6.421875 20.941406 -5.339844 18.238281 -5.339844 C 13.320312 -5.339844 10.378906 -8.398438 9.898438 -12.058594 L 31.441406 -12.058594 L 31.441406 -13.738281 C 31.441406 -23.21875 25.558594 -29.699219 16.921875 -29.699219 C 8.101562 -29.699219 1.921875 -22.921875 1.921875 -14.519531 Z M 16.921875 -23.640625 C 21.960938 -23.640625 23.878906 -19.980469 24.058594 -17.21875 L 9.78125 -17.21875 C 10.140625 -20.101562 12.179688 -23.640625 16.921875 -23.640625 Z M 16.921875 -23.640625 "/></g></g><g style="fill:#000000;fill-opacity:1;"><g transform="translate(534.893706, 437.425076)"><path style="stroke:none" d="M 11.398438 0 L 11.398438 -19.140625 C 12.660156 -21 16.019531 -22.378906 18.539062 -22.378906 C 19.378906 -22.378906 20.101562 -22.320312 20.640625 -22.199219 L 20.640625 -29.640625 C 17.039062 -29.640625 13.441406 -27.601562 11.398438 -25.019531 L 11.398438 -28.980469 L 3.78125 -28.980469 L 3.78125 0 Z M 11.398438 0 "/></g></g><g style="fill:#000000;fill-opacity:1;"><g transform="translate(554.993684, 437.425076)"><path style="stroke:none" d="M 30.960938 0 L 30.960938 -20.460938 C 30.960938 -26.101562 27.898438 -29.699219 21.539062 -29.699219 C 16.800781 -29.699219 13.261719 -27.421875 11.398438 -25.199219 L 11.398438 -28.980469 L 3.78125 -28.980469 L 3.78125 0 L 11.398438 0 L 11.398438 -19.5 C 12.660156 -21.238281 15 -22.921875 18 -22.921875 C 21.238281 -22.921875 23.339844 -21.539062 23.339844 -17.519531 L 23.339844 0 Z M 30.960938 0 "/></g></g><g style="fill:#000000;fill-opacity:1;"><g transform="translate(588.233666, 437.425076)"><path style="stroke:none" d="M 6.71875 8.21875 C 10.378906 5.578125 12.898438 1.558594 12.898438 -2.941406 C 12.898438 -6.839844 10.320312 -9.058594 7.5 -9.058594 C 4.980469 -9.058594 2.820312 -6.898438 2.820312 -4.261719 C 2.820312 -1.679688 4.621094 0.121094 6.898438 0.121094 C 7.320312 0.121094 7.859375 0 8.039062 -0.0585938 C 7.558594 2.039062 5.339844 4.5 3.421875 5.519531 Z M 6.71875 8.21875 "/></g></g><g style="fill:#000000;fill-opacity:1;"><g transform="translate(602.09365, 437.425076)"><path style="stroke:none" d=""/></g></g><g style="fill:#000000;fill-opacity:1;"><g transform="translate(615.953634, 437.425076)"><path style="stroke:none" d="M 37.320312 0 L 46.140625 -28.980469 L 38.21875 -28.980469 L 32.820312 -9.480469 L 26.460938 -28.980469 L 19.679688 -28.980469 L 13.320312 -9.480469 L 7.921875 -28.980469 L 0 -28.980469 L 8.820312 0 L 16.980469 0 L 23.101562 -19.738281 L 29.21875 0 Z M 37.320312 0 "/></g></g><g style="fill:#000000;fill-opacity:1;"><g transform="translate(660.593578, 437.425076)"><path style="stroke:none" d="M 1.921875 -14.519531 C 1.921875 -5.21875 8.578125 0.71875 17.398438 0.71875 C 21.898438 0.71875 26.398438 -0.601562 29.339844 -3.300781 L 25.980469 -8.21875 C 24.121094 -6.421875 20.941406 -5.339844 18.238281 -5.339844 C 13.320312 -5.339844 10.378906 -8.398438 9.898438 -12.058594 L 31.441406 -12.058594 L 31.441406 -13.738281 C 31.441406 -23.21875 25.558594 -29.699219 16.921875 -29.699219 C 8.101562 -29.699219 1.921875 -22.921875 1.921875 -14.519531 Z M 16.921875 -23.640625 C 21.960938 -23.640625 23.878906 -19.980469 24.058594 -17.21875 L 9.78125 -17.21875 C 10.140625 -20.101562 12.179688 -23.640625 16.921875 -23.640625 Z M 16.921875 -23.640625 "/></g></g><g style="fill:#000000;fill-opacity:1;"><g transform="translate(692.273546, 437.425076)"><path style="stroke:none" d="M 11.398438 0 L 11.398438 -40.019531 L 3.78125 -40.019531 L 3.78125 0 Z M 11.398438 0 "/></g></g><g style="fill:#000000;fill-opacity:1;"><g transform="translate(705.953538, 437.425076)"><path style="stroke:none" d="M 11.398438 0 L 11.398438 -40.019531 L 3.78125 -40.019531 L 3.78125 0 Z M 11.398438 0 "/></g></g><g style="fill:#000000;fill-opacity:1;"><g transform="translate(719.633507, 437.425076)"><path style="stroke:none" d=""/></g></g><g style="fill:#000000;fill-opacity:1;"><g transform="translate(733.493492, 437.425076)"><path style="stroke:none" d="M 11.398438 0 L 11.398438 -3.660156 C 13.679688 -0.839844 16.859375 0.71875 20.339844 0.71875 C 27.660156 0.71875 33.179688 -4.800781 33.179688 -14.460938 C 33.179688 -23.941406 27.71875 -29.699219 20.339844 -29.699219 C 16.921875 -29.699219 13.679688 -28.199219 11.398438 -25.261719 L 11.398438 -40.019531 L 3.78125 -40.019531 L 3.78125 0 Z M 11.398438 -19.558594 C 12.660156 -21.480469 15.480469 -22.921875 17.941406 -22.921875 C 22.378906 -22.921875 25.320312 -19.5 25.320312 -14.460938 C 25.320312 -9.421875 22.378906 -6.058594 17.941406 -6.058594 C 15.480469 -6.058594 12.660156 -7.441406 11.398438 -9.300781 Z M 11.398438 -19.558594 "/></g></g><g style="fill:#000000;fill-opacity:1;"><g transform="translate(767.153471, 437.425076)"><path style="stroke:none" d="M 30.960938 0 L 30.960938 -28.980469 L 23.339844 -28.980469 L 23.339844 -9.359375 C 22.019531 -7.679688 19.679688 -6.058594 16.738281 -6.058594 C 13.5 -6.058594 11.398438 -7.378906 11.398438 -11.398438 L 11.398438 -28.980469 L 3.78125 -28.980469 L 3.78125 -8.398438 C 3.78125 -2.761719 6.78125 0.71875 13.140625 0.71875 C 17.878906 0.71875 21.359375 -1.441406 23.339844 -3.660156 L 23.339844 0 Z M 30.960938 0 "/></g></g><g style="fill:#000000;fill-opacity:1;"><g transform="translate(800.393428, 437.425076)"><path style="stroke:none" d="M 7.558594 -33.238281 C 10.078125 -33.238281 12.121094 -35.28125 12.121094 -37.800781 C 12.121094 -40.320312 10.078125 -42.359375 7.558594 -42.359375 C 5.101562 -42.359375 3 -40.320312 3 -37.800781 C 3 -35.28125 5.101562 -33.238281 7.558594 -33.238281 Z M 11.398438 0 L 11.398438 -28.980469 L 3.78125 -28.980469 L 3.78125 0 Z M 11.398438 0 "/></g></g><g style="fill:#000000;fill-opacity:1;"><g transform="translate(814.07342, 437.425076)"><path style="stroke:none" d="M 11.398438 0 L 11.398438 -40.019531 L 3.78125 -40.019531 L 3.78125 0 Z M 11.398438 0 "/></g></g><g style="fill:#000000;fill-opacity:1;"><g transform="translate(827.753412, 437.425076)"><path style="stroke:none" d="M 13.5 0.71875 C 16.679688 0.71875 18.71875 -0.121094 19.859375 -1.140625 L 18.238281 -6.898438 C 17.820312 -6.480469 16.738281 -6.058594 15.601562 -6.058594 C 13.921875 -6.058594 12.960938 -7.441406 12.960938 -9.238281 L 12.960938 -22.320312 L 18.839844 -22.320312 L 18.839844 -28.980469 L 12.960938 -28.980469 L 12.960938 -36.898438 L 5.28125 -36.898438 L 5.28125 -28.980469 L 0.480469 -28.980469 L 0.480469 -22.320312 L 5.28125 -22.320312 L 5.28125 -7.199219 C 5.28125 -2.039062 8.160156 0.71875 13.5 0.71875 Z M 13.5 0.71875 "/></g></g><g style="fill:#000000;fill-opacity:1;"><g transform="translate(846.533349, 437.425076)"><path style="stroke:none" d=""/></g></g><g style="fill:#000000;fill-opacity:1;"><g transform="translate(860.393333, 437.425076)"><path style="stroke:none" d="M 37.320312 0 L 46.140625 -28.980469 L 38.21875 -28.980469 L 32.820312 -9.480469 L 26.460938 -28.980469 L 19.679688 -28.980469 L 13.320312 -9.480469 L 7.921875 -28.980469 L 0 -28.980469 L 8.820312 0 L 16.980469 0 L 23.101562 -19.738281 L 29.21875 0 Z M 37.320312 0 "/></g></g><g style="fill:#000000;fill-opacity:1;"><g transform="translate(905.033299, 437.425076)"><path style="stroke:none" d="M 1.921875 -14.519531 C 1.921875 -5.21875 8.578125 0.71875 17.398438 0.71875 C 21.898438 0.71875 26.398438 -0.601562 29.339844 -3.300781 L 25.980469 -8.21875 C 24.121094 -6.421875 20.941406 -5.339844 18.238281 -5.339844 C 13.320312 -5.339844 10.378906 -8.398438 9.898438 -12.058594 L 31.441406 -12.058594 L 31.441406 -13.738281 C 31.441406 -23.21875 25.558594 -29.699219 16.921875 -29.699219 C 8.101562 -29.699219 1.921875 -22.921875 1.921875 -14.519531 Z M 16.921875 -23.640625 C 21.960938 -23.640625 23.878906 -19.980469 24.058594 -17.21875 L 9.78125 -17.21875 C 10.140625 -20.101562 12.179688 -23.640625 16.921875 -23.640625 Z M 16.921875 -23.640625 "/></g></g><g style="fill:#000000;fill-opacity:1;"><g transform="translate(936.71329, 437.425076)"><path style="stroke:none" d="M 11.398438 0 L 11.398438 -3.660156 C 13.679688 -0.839844 16.859375 0.71875 20.339844 0.71875 C 27.660156 0.71875 33.179688 -4.800781 33.179688 -14.460938 C 33.179688 -23.941406 27.71875 -29.699219 20.339844 -29.699219 C 16.921875 -29.699219 13.679688 -28.199219 11.398438 -25.261719 L 11.398438 -40.019531 L 3.78125 -40.019531 L 3.78125 0 Z M 11.398438 -19.558594 C 12.660156 -21.480469 15.480469 -22.921875 17.941406 -22.921875 C 22.378906 -22.921875 25.320312 -19.5 25.320312 -14.460938 C 25.320312 -9.421875 22.378906 -6.058594 17.941406 -6.058594 C 15.480469 -6.058594 12.660156 -7.441406 11.398438 -9.300781 Z M 11.398438 -19.558594 "/></g></g><g style="fill:#000000;fill-opacity:1;"><g transform="translate(970.373247, 437.425076)"><path style="stroke:none" d="M 1.261719 -3.78125 C 4.320312 -0.960938 9.179688 0.71875 14.21875 0.71875 C 22.261719 0.71875 26.761719 -3.238281 26.761719 -8.578125 C 26.761719 -15.78125 20.101562 -17.101562 15.121094 -18.058594 C 11.878906 -18.71875 9.601562 -19.378906 9.601562 -21.179688 C 9.601562 -22.859375 11.398438 -23.878906 14.160156 -23.878906 C 17.699219 -23.878906 21 -22.378906 22.738281 -20.519531 L 25.738281 -25.738281 C 22.921875 -28.019531 19.019531 -29.699219 14.101562 -29.699219 C 6.480469 -29.699219 2.21875 -25.441406 2.21875 -20.578125 C 2.21875 -13.679688 8.640625 -12.480469 13.621094 -11.519531 C 16.921875 -10.859375 19.441406 -10.140625 19.441406 -8.101562 C 19.441406 -6.300781 17.878906 -5.160156 14.578125 -5.160156 C 10.980469 -5.160156 6.660156 -7.140625 4.558594 -9.121094 Z M 1.261719 -3.78125 "/></g></g><g style="fill:#000000;fill-opacity:1;"><g transform="translate(997.493225, 437.425076)"><path style="stroke:none" d="M 7.558594 -33.238281 C 10.078125 -33.238281 12.121094 -35.28125 12.121094 -37.800781 C 12.121094 -40.320312 10.078125 -42.359375 7.558594 -42.359375 C 5.101562 -42.359375 3 -40.320312 3 -37.800781 C 3 -35.28125 5.101562 -33.238281 7.558594 -33.238281 Z M 11.398438 0 L 11.398438 -28.980469 L 3.78125 -28.980469 L 3.78125 0 Z M 11.398438 0 "/></g></g><g style="fill:#000000;fill-opacity:1;"><g transform="translate(1011.173171, 437.425076)"><path style="stroke:none" d="M 13.5 0.71875 C 16.679688 0.71875 18.71875 -0.121094 19.859375 -1.140625 L 18.238281 -6.898438 C 17.820312 -6.480469 16.738281 -6.058594 15.601562 -6.058594 C 13.921875 -6.058594 12.960938 -7.441406 12.960938 -9.238281 L 12.960938 -22.320312 L 18.839844 -22.320312 L 18.839844 -28.980469 L 12.960938 -28.980469 L 12.960938 -36.898438 L 5.28125 -36.898438 L 5.28125 -28.980469 L 0.480469 -28.980469 L 0.480469 -22.320312 L 5.28125 -22.320312 L 5.28125 -7.199219 C 5.28125 -2.039062 8.160156 0.71875 13.5 0.71875 Z M 13.5 0.71875 "/></g></g><g style="fill:#000000;fill-opacity:1;"><g transform="translate(1029.953199, 437.425076)"><path style="stroke:none" d="M 1.921875 -14.519531 C 1.921875 -5.21875 8.578125 0.71875 17.398438 0.71875 C 21.898438 0.71875 26.398438 -0.601562 29.339844 -3.300781 L 25.980469 -8.21875 C 24.121094 -6.421875 20.941406 -5.339844 18.238281 -5.339844 C 13.320312 -5.339844 10.378906 -8.398438 9.898438 -12.058594 L 31.441406 -12.058594 L 31.441406 -13.738281 C 31.441406 -23.21875 25.558594 -29.699219 16.921875 -29.699219 C 8.101562 -29.699219 1.921875 -22.921875 1.921875 -14.519531 Z M 16.921875 -23.640625 C 21.960938 -23.640625 23.878906 -19.980469 24.058594 -17.21875 L 9.78125 -17.21875 C 10.140625 -20.101562 12.179688 -23.640625 16.921875 -23.640625 Z M 16.921875 -23.640625 "/></g></g><g style="fill:#000000;fill-opacity:1;"><g transform="translate(1061.633144, 437.425076)"><path style="stroke:none" d="M 1.261719 -3.78125 C 4.320312 -0.960938 9.179688 0.71875 14.21875 0.71875 C 22.261719 0.71875 26.761719 -3.238281 26.761719 -8.578125 C 26.761719 -15.78125 20.101562 -17.101562 15.121094 -18.058594 C 11.878906 -18.71875 9.601562 -19.378906 9.601562 -21.179688 C 9.601562 -22.859375 11.398438 -23.878906 14.160156 -23.878906 C 17.699219 -23.878906 21 -22.378906 22.738281 -20.519531 L 25.738281 -25.738281 C 22.921875 -28.019531 19.019531 -29.699219 14.101562 -29.699219 C 6.480469 -29.699219 2.21875 -25.441406 2.21875 -20.578125 C 2.21875 -13.679688 8.640625 -12.480469 13.621094 -11.519531 C 16.921875 -10.859375 19.441406 -10.140625 19.441406 -8.101562 C 19.441406 -6.300781 17.878906 -5.160156 14.578125 -5.160156 C 10.980469 -5.160156 6.660156 -7.140625 4.558594 -9.121094 Z M 1.261719 -3.78125 "/></g></g><g style="fill:#000000;fill-opacity:1;"><g transform="translate(1088.753123, 437.425076)"><path style="stroke:none" d=""/></g></g><g style="fill:#000000;fill-opacity:1;"><g transform="translate(1102.613107, 437.425076)"><path style="stroke:none" d="M 13.5 0.71875 C 16.679688 0.71875 18.71875 -0.121094 19.859375 -1.140625 L 18.238281 -6.898438 C 17.820312 -6.480469 16.738281 -6.058594 15.601562 -6.058594 C 13.921875 -6.058594 12.960938 -7.441406 12.960938 -9.238281 L 12.960938 -22.320312 L 18.839844 -22.320312 L 18.839844 -28.980469 L 12.960938 -28.980469 L 12.960938 -36.898438 L 5.28125 -36.898438 L 5.28125 -28.980469 L 0.480469 -28.980469 L 0.480469 -22.320312 L 5.28125 -22.320312 L 5.28125 -7.199219 C 5.28125 -2.039062 8.160156 0.71875 13.5 0.71875 Z M 13.5 0.71875 "/></g></g><g style="fill:#000000;fill-opacity:1;"><g transform="translate(1121.39309, 437.425076)"><path style="stroke:none" d="M 31.019531 0 L 31.019531 -20.578125 C 31.019531 -26.21875 27.960938 -29.699219 21.601562 -29.699219 C 16.859375 -29.699219 13.261719 -27.421875 11.398438 -25.199219 L 11.398438 -40.019531 L 3.78125 -40.019531 L 3.78125 0 L 11.398438 0 L 11.398438 -19.5 C 12.71875 -21.238281 15.058594 -22.921875 18 -22.921875 C 21.300781 -22.921875 23.398438 -21.660156 23.398438 -17.640625 L 23.398438 0 Z M 31.019531 0 "/></g></g><g style="fill:#000000;fill-opacity:1;"><g transform="translate(1154.69306, 437.425076)"><path style="stroke:none" d="M 28.800781 0 L 28.800781 -18.71875 C 28.800781 -27.058594 22.738281 -29.699219 16.140625 -29.699219 C 11.578125 -29.699219 7.019531 -28.261719 3.480469 -25.140625 L 6.359375 -20.039062 C 8.820312 -22.320312 11.699219 -23.460938 14.820312 -23.460938 C 18.660156 -23.460938 21.179688 -21.539062 21.179688 -18.601562 L 21.179688 -14.578125 C 19.261719 -16.921875 15.839844 -18.121094 12 -18.121094 C 7.378906 -18.121094 1.921875 -15.660156 1.921875 -8.878906 C 1.921875 -2.398438 7.378906 0.71875 12 0.71875 C 15.78125 0.71875 19.199219 -0.660156 21.179688 -3 L 21.179688 0 Z M 21.179688 -6.960938 C 19.921875 -5.28125 17.519531 -4.441406 15.058594 -4.441406 C 12.058594 -4.441406 9.601562 -6 9.601562 -8.699219 C 9.601562 -11.460938 12.058594 -13.078125 15.058594 -13.078125 C 17.519531 -13.078125 19.921875 -12.238281 21.179688 -10.558594 Z M 21.179688 -6.960938 "/></g></g><g style="fill:#000000;fill-opacity:1;"><g transform="translate(1185.773014, 437.425076)"><path style="stroke:none" d="M 13.5 0.71875 C 16.679688 0.71875 18.71875 -0.121094 19.859375 -1.140625 L 18.238281 -6.898438 C 17.820312 -6.480469 16.738281 -6.058594 15.601562 -6.058594 C 13.921875 -6.058594 12.960938 -7.441406 12.960938 -9.238281 L 12.960938 -22.320312 L 18.839844 -22.320312 L 18.839844 -28.980469 L 12.960938 -28.980469 L 12.960938 -36.898438 L 5.28125 -36.898438 L 5.28125 -28.980469 L 0.480469 -28.980469 L 0.480469 -22.320312 L 5.28125 -22.320312 L 5.28125 -7.199219 C 5.28125 -2.039062 8.160156 0.71875 13.5 0.71875 Z M 13.5 0.71875 "/></g></g><g style="fill:#000000;fill-opacity:1;"><g transform="translate(338.81807, 503.425072)"><path style="stroke:none" d="M 17.21875 0.71875 C 26.820312 0.71875 32.578125 -6.238281 32.578125 -14.519531 C 32.578125 -22.738281 26.820312 -29.699219 17.21875 -29.699219 C 7.679688 -29.699219 1.921875 -22.738281 1.921875 -14.519531 C 1.921875 -6.238281 7.679688 0.71875 17.21875 0.71875 Z M 17.21875 -6.058594 C 12.480469 -6.058594 9.839844 -9.960938 9.839844 -14.519531 C 9.839844 -19.019531 12.480469 -22.921875 17.21875 -22.921875 C 21.960938 -22.921875 24.660156 -19.019531 24.660156 -14.519531 C 24.660156 -9.960938 21.960938 -6.058594 17.21875 -6.058594 Z M 17.21875 -6.058594 "/></g></g><g style="fill:#000000;fill-opacity:1;"><g transform="translate(371.758032, 503.425072)"><path style="stroke:none" d="M 19.019531 -22.320312 L 19.019531 -28.980469 L 13.140625 -28.980469 L 13.140625 -30.421875 C 13.140625 -33.179688 14.578125 -34.621094 16.738281 -34.621094 C 17.640625 -34.621094 18.539062 -34.441406 19.199219 -34.019531 L 20.761719 -39.421875 C 19.378906 -40.140625 17.398438 -40.621094 15.238281 -40.621094 C 9.539062 -40.621094 5.460938 -36.839844 5.460938 -30.539062 L 5.460938 -28.980469 L 0.660156 -28.980469 L 0.660156 -22.320312 L 5.460938 -22.320312 L 5.460938 0 L 13.140625 0 L 13.140625 -22.320312 Z M 19.019531 -22.320312 "/></g></g><g style="fill:#000000;fill-opacity:1;"><g transform="translate(389.878011, 503.425072)"><path style="stroke:none" d="M 19.019531 -22.320312 L 19.019531 -28.980469 L 13.140625 -28.980469 L 13.140625 -30.421875 C 13.140625 -33.179688 14.578125 -34.621094 16.738281 -34.621094 C 17.640625 -34.621094 18.539062 -34.441406 19.199219 -34.019531 L 20.761719 -39.421875 C 19.378906 -40.140625 17.398438 -40.621094 15.238281 -40.621094 C 9.539062 -40.621094 5.460938 -36.839844 5.460938 -30.539062 L 5.460938 -28.980469 L 0.660156 -28.980469 L 0.660156 -22.320312 L 5.460938 -22.320312 L 5.460938 0 L 13.140625 0 L 13.140625 -22.320312 Z M 19.019531 -22.320312 "/></g></g><g style="fill:#000000;fill-opacity:1;"><g transform="translate(407.99799, 503.425072)"><path style="stroke:none" d="M 1.921875 -14.519531 C 1.921875 -5.21875 8.578125 0.71875 17.398438 0.71875 C 21.898438 0.71875 26.398438 -0.601562 29.339844 -3.300781 L 25.980469 -8.21875 C 24.121094 -6.421875 20.941406 -5.339844 18.238281 -5.339844 C 13.320312 -5.339844 10.378906 -8.398438 9.898438 -12.058594 L 31.441406 -12.058594 L 31.441406 -13.738281 C 31.441406 -23.21875 25.558594 -29.699219 16.921875 -29.699219 C 8.101562 -29.699219 1.921875 -22.921875 1.921875 -14.519531 Z M 16.921875 -23.640625 C 21.960938 -23.640625 23.878906 -19.980469 24.058594 -17.21875 L 9.78125 -17.21875 C 10.140625 -20.101562 12.179688 -23.640625 16.921875 -23.640625 Z M 16.921875 -23.640625 "/></g></g><g style="fill:#000000;fill-opacity:1;"><g transform="translate(439.677959, 503.425072)"><path style="stroke:none" d="M 11.398438 0 L 11.398438 -19.140625 C 12.660156 -21 16.019531 -22.378906 18.539062 -22.378906 C 19.378906 -22.378906 20.101562 -22.320312 20.640625 -22.199219 L 20.640625 -29.640625 C 17.039062 -29.640625 13.441406 -27.601562 11.398438 -25.019531 L 11.398438 -28.980469 L 3.78125 -28.980469 L 3.78125 0 Z M 11.398438 0 "/></g></g><g style="fill:#000000;fill-opacity:1;"><g transform="translate(459.777937, 503.425072)"><path style="stroke:none" d=""/></g></g><g style="fill:#000000;fill-opacity:1;"><g transform="translate(473.637922, 503.425072)"><path style="stroke:none" d="M 19.5 0 L 31.140625 -28.980469 L 22.921875 -28.980469 L 15.359375 -8.820312 L 7.800781 -28.980469 L -0.359375 -28.980469 L 11.28125 0 Z M 19.5 0 "/></g></g><g style="fill:#000000;fill-opacity:1;"><g transform="translate(502.917892, 503.425072)"><path style="stroke:none" d="M 28.800781 0 L 28.800781 -18.71875 C 28.800781 -27.058594 22.738281 -29.699219 16.140625 -29.699219 C 11.578125 -29.699219 7.019531 -28.261719 3.480469 -25.140625 L 6.359375 -20.039062 C 8.820312 -22.320312 11.699219 -23.460938 14.820312 -23.460938 C 18.660156 -23.460938 21.179688 -21.539062 21.179688 -18.601562 L 21.179688 -14.578125 C 19.261719 -16.921875 15.839844 -18.121094 12 -18.121094 C 7.378906 -18.121094 1.921875 -15.660156 1.921875 -8.878906 C 1.921875 -2.398438 7.378906 0.71875 12 0.71875 C 15.78125 0.71875 19.199219 -0.660156 21.179688 -3 L 21.179688 0 Z M 21.179688 -6.960938 C 19.921875 -5.28125 17.519531 -4.441406 15.058594 -4.441406 C 12.058594 -4.441406 9.601562 -6 9.601562 -8.699219 C 9.601562 -11.460938 12.058594 -13.078125 15.058594 -13.078125 C 17.519531 -13.078125 19.921875 -12.238281 21.179688 -10.558594 Z M 21.179688 -6.960938 "/></g></g><g style="fill:#000000;fill-opacity:1;"><g transform="translate(533.99787, 503.425072)"><path style="stroke:none" d="M 11.398438 0 L 11.398438 -40.019531 L 3.78125 -40.019531 L 3.78125 0 Z M 11.398438 0 "/></g></g><g style="fill:#000000;fill-opacity:1;"><g transform="translate(547.677839, 503.425072)"><path style="stroke:none" d="M 30.960938 0 L 30.960938 -28.980469 L 23.339844 -28.980469 L 23.339844 -9.359375 C 22.019531 -7.679688 19.679688 -6.058594 16.738281 -6.058594 C 13.5 -6.058594 11.398438 -7.378906 11.398438 -11.398438 L 11.398438 -28.980469 L 3.78125 -28.980469 L 3.78125 -8.398438 C 3.78125 -2.761719 6.78125 0.71875 13.140625 0.71875 C 17.878906 0.71875 21.359375 -1.441406 23.339844 -3.660156 L 23.339844 0 Z M 30.960938 0 "/></g></g><g style="fill:#000000;fill-opacity:1;"><g transform="translate(580.91782, 503.425072)"><path style="stroke:none" d="M 1.921875 -14.519531 C 1.921875 -5.21875 8.578125 0.71875 17.398438 0.71875 C 21.898438 0.71875 26.398438 -0.601562 29.339844 -3.300781 L 25.980469 -8.21875 C 24.121094 -6.421875 20.941406 -5.339844 18.238281 -5.339844 C 13.320312 -5.339844 10.378906 -8.398438 9.898438 -12.058594 L 31.441406 -12.058594 L 31.441406 -13.738281 C 31.441406 -23.21875 25.558594 -29.699219 16.921875 -29.699219 C 8.101562 -29.699219 1.921875 -22.921875 1.921875 -14.519531 Z M 16.921875 -23.640625 C 21.960938 -23.640625 23.878906 -19.980469 24.058594 -17.21875 L 9.78125 -17.21875 C 10.140625 -20.101562 12.179688 -23.640625 16.921875 -23.640625 Z M 16.921875 -23.640625 "/></g></g><g style="fill:#000000;fill-opacity:1;"><g transform="translate(612.597765, 503.425072)"><path style="stroke:none" d=""/></g></g><g style="fill:#000000;fill-opacity:1;"><g transform="translate(626.45775, 503.425072)"><path style="stroke:none" d="M 28.800781 0 L 28.800781 -18.71875 C 28.800781 -27.058594 22.738281 -29.699219 16.140625 -29.699219 C 11.578125 -29.699219 7.019531 -28.261719 3.480469 -25.140625 L 6.359375 -20.039062 C 8.820312 -22.320312 11.699219 -23.460938 14.820312 -23.460938 C 18.660156 -23.460938 21.179688 -21.539062 21.179688 -18.601562 L 21.179688 -14.578125 C 19.261719 -16.921875 15.839844 -18.121094 12 -18.121094 C 7.378906 -18.121094 1.921875 -15.660156 1.921875 -8.878906 C 1.921875 -2.398438 7.378906 0.71875 12 0.71875 C 15.78125 0.71875 19.199219 -0.660156 21.179688 -3 L 21.179688 0 Z M 21.179688 -6.960938 C 19.921875 -5.28125 17.519531 -4.441406 15.058594 -4.441406 C 12.058594 -4.441406 9.601562 -6 9.601562 -8.699219 C 9.601562 -11.460938 12.058594 -13.078125 15.058594 -13.078125 C 17.519531 -13.078125 19.921875 -12.238281 21.179688 -10.558594 Z M 21.179688 -6.960938 "/></g></g><g style="fill:#000000;fill-opacity:1;"><g transform="translate(657.537727, 503.425072)"><path style="stroke:none" d="M 30.960938 0 L 30.960938 -20.460938 C 30.960938 -26.101562 27.898438 -29.699219 21.539062 -29.699219 C 16.800781 -29.699219 13.261719 -27.421875 11.398438 -25.199219 L 11.398438 -28.980469 L 3.78125 -28.980469 L 3.78125 0 L 11.398438 0 L 11.398438 -19.5 C 12.660156 -21.238281 15 -22.921875 18 -22.921875 C 21.238281 -22.921875 23.339844 -21.539062 23.339844 -17.519531 L 23.339844 0 Z M 30.960938 0 "/></g></g><g style="fill:#000000;fill-opacity:1;"><g transform="translate(690.777708, 503.425072)"><path style="stroke:none" d="M 31.378906 0 L 31.378906 -40.019531 L 23.699219 -40.019531 L 23.699219 -25.261719 C 21.421875 -28.199219 18.179688 -29.699219 14.761719 -29.699219 C 7.378906 -29.699219 1.921875 -23.941406 1.921875 -14.460938 C 1.921875 -4.800781 7.441406 0.71875 14.761719 0.71875 C 18.238281 0.71875 21.421875 -0.839844 23.699219 -3.660156 L 23.699219 0 Z M 23.699219 -9.359375 C 22.378906 -7.441406 19.679688 -6.058594 17.101562 -6.058594 C 12.78125 -6.058594 9.78125 -9.480469 9.78125 -14.460938 C 9.78125 -19.5 12.78125 -22.921875 17.101562 -22.921875 C 19.679688 -22.921875 22.378906 -21.539062 23.699219 -19.621094 Z M 23.699219 -9.359375 "/></g></g><g style="fill:#000000;fill-opacity:1;"><g transform="translate(724.437664, 503.425072)"><path style="stroke:none" d=""/></g></g><g style="fill:#000000;fill-opacity:1;"><g transform="translate(738.297649, 503.425072)"><path style="stroke:none" d="M 28.800781 0 L 28.800781 -18.71875 C 28.800781 -27.058594 22.738281 -29.699219 16.140625 -29.699219 C 11.578125 -29.699219 7.019531 -28.261719 3.480469 -25.140625 L 6.359375 -20.039062 C 8.820312 -22.320312 11.699219 -23.460938 14.820312 -23.460938 C 18.660156 -23.460938 21.179688 -21.539062 21.179688 -18.601562 L 21.179688 -14.578125 C 19.261719 -16.921875 15.839844 -18.121094 12 -18.121094 C 7.378906 -18.121094 1.921875 -15.660156 1.921875 -8.878906 C 1.921875 -2.398438 7.378906 0.71875 12 0.71875 C 15.78125 0.71875 19.199219 -0.660156 21.179688 -3 L 21.179688 0 Z M 21.179688 -6.960938 C 19.921875 -5.28125 17.519531 -4.441406 15.058594 -4.441406 C 12.058594 -4.441406 9.601562 -6 9.601562 -8.699219 C 9.601562 -11.460938 12.058594 -13.078125 15.058594 -13.078125 C 17.519531 -13.078125 19.921875 -12.238281 21.179688 -10.558594 Z M 21.179688 -6.960938 "/></g></g><g style="fill:#000000;fill-opacity:1;"><g transform="translate(769.377603, 503.425072)"><path style="stroke:none" d="M 13.5 0.71875 C 16.679688 0.71875 18.71875 -0.121094 19.859375 -1.140625 L 18.238281 -6.898438 C 17.820312 -6.480469 16.738281 -6.058594 15.601562 -6.058594 C 13.921875 -6.058594 12.960938 -7.441406 12.960938 -9.238281 L 12.960938 -22.320312 L 18.839844 -22.320312 L 18.839844 -28.980469 L 12.960938 -28.980469 L 12.960938 -36.898438 L 5.28125 -36.898438 L 5.28125 -28.980469 L 0.480469 -28.980469 L 0.480469 -22.320312 L 5.28125 -22.320312 L 5.28125 -7.199219 C 5.28125 -2.039062 8.160156 0.71875 13.5 0.71875 Z M 13.5 0.71875 "/></g></g><g style="fill:#000000;fill-opacity:1;"><g transform="translate(788.157585, 503.425072)"><path style="stroke:none" d="M 13.5 0.71875 C 16.679688 0.71875 18.71875 -0.121094 19.859375 -1.140625 L 18.238281 -6.898438 C 17.820312 -6.480469 16.738281 -6.058594 15.601562 -6.058594 C 13.921875 -6.058594 12.960938 -7.441406 12.960938 -9.238281 L 12.960938 -22.320312 L 18.839844 -22.320312 L 18.839844 -28.980469 L 12.960938 -28.980469 L 12.960938 -36.898438 L 5.28125 -36.898438 L 5.28125 -28.980469 L 0.480469 -28.980469 L 0.480469 -22.320312 L 5.28125 -22.320312 L 5.28125 -7.199219 C 5.28125 -2.039062 8.160156 0.71875 13.5 0.71875 Z M 13.5 0.71875 "/></g></g><g style="fill:#000000;fill-opacity:1;"><g transform="translate(806.937568, 503.425072)"><path style="stroke:none" d="M 11.398438 0 L 11.398438 -19.140625 C 12.660156 -21 16.019531 -22.378906 18.539062 -22.378906 C 19.378906 -22.378906 20.101562 -22.320312 20.640625 -22.199219 L 20.640625 -29.640625 C 17.039062 -29.640625 13.441406 -27.601562 11.398438 -25.019531 L 11.398438 -28.980469 L 3.78125 -28.980469 L 3.78125 0 Z M 11.398438 0 "/></g></g><g style="fill:#000000;fill-opacity:1;"><g transform="translate(827.037558, 503.425072)"><path style="stroke:none" d="M 28.800781 0 L 28.800781 -18.71875 C 28.800781 -27.058594 22.738281 -29.699219 16.140625 -29.699219 C 11.578125 -29.699219 7.019531 -28.261719 3.480469 -25.140625 L 6.359375 -20.039062 C 8.820312 -22.320312 11.699219 -23.460938 14.820312 -23.460938 C 18.660156 -23.460938 21.179688 -21.539062 21.179688 -18.601562 L 21.179688 -14.578125 C 19.261719 -16.921875 15.839844 -18.121094 12 -18.121094 C 7.378906 -18.121094 1.921875 -15.660156 1.921875 -8.878906 C 1.921875 -2.398438 7.378906 0.71875 12 0.71875 C 15.78125 0.71875 19.199219 -0.660156 21.179688 -3 L 21.179688 0 Z M 21.179688 -6.960938 C 19.921875 -5.28125 17.519531 -4.441406 15.058594 -4.441406 C 12.058594 -4.441406 9.601562 -6 9.601562 -8.699219 C 9.601562 -11.460938 12.058594 -13.078125 15.058594 -13.078125 C 17.519531 -13.078125 19.921875 -12.238281 21.179688 -10.558594 Z M 21.179688 -6.960938 "/></g></g><g style="fill:#000000;fill-opacity:1;"><g transform="translate(858.117512, 503.425072)"><path style="stroke:none" d="M 1.921875 -14.519531 C 1.921875 -5.578125 8.339844 0.71875 17.28125 0.71875 C 23.21875 0.71875 26.820312 -1.859375 28.738281 -4.558594 L 23.761719 -9.179688 C 22.378906 -7.261719 20.28125 -6.058594 17.640625 -6.058594 C 13.019531 -6.058594 9.78125 -9.480469 9.78125 -14.519531 C 9.78125 -19.558594 13.019531 -22.921875 17.640625 -22.921875 C 20.28125 -22.921875 22.378906 -21.78125 23.761719 -19.800781 L 28.738281 -24.421875 C 26.820312 -27.121094 23.21875 -29.699219 17.28125 -29.699219 C 8.339844 -29.699219 1.921875 -23.398438 1.921875 -14.519531 Z M 1.921875 -14.519531 "/></g></g><g style="fill:#000000;fill-opacity:1;"><g transform="translate(886.557498, 503.425072)"><path style="stroke:none" d="M 13.5 0.71875 C 16.679688 0.71875 18.71875 -0.121094 19.859375 -1.140625 L 18.238281 -6.898438 C 17.820312 -6.480469 16.738281 -6.058594 15.601562 -6.058594 C 13.921875 -6.058594 12.960938 -7.441406 12.960938 -9.238281 L 12.960938 -22.320312 L 18.839844 -22.320312 L 18.839844 -28.980469 L 12.960938 -28.980469 L 12.960938 -36.898438 L 5.28125 -36.898438 L 5.28125 -28.980469 L 0.480469 -28.980469 L 0.480469 -22.320312 L 5.28125 -22.320312 L 5.28125 -7.199219 C 5.28125 -2.039062 8.160156 0.71875 13.5 0.71875 Z M 13.5 0.71875 "/></g></g><g style="fill:#000000;fill-opacity:1;"><g transform="translate(905.337481, 503.425072)"><path style="stroke:none" d=""/></g></g><g style="fill:#000000;fill-opacity:1;"><g transform="translate(919.197465, 503.425072)"><path style="stroke:none" d="M 1.921875 -14.519531 C 1.921875 -5.578125 8.339844 0.71875 17.28125 0.71875 C 23.21875 0.71875 26.820312 -1.859375 28.738281 -4.558594 L 23.761719 -9.179688 C 22.378906 -7.261719 20.28125 -6.058594 17.640625 -6.058594 C 13.019531 -6.058594 9.78125 -9.480469 9.78125 -14.519531 C 9.78125 -19.558594 13.019531 -22.921875 17.640625 -22.921875 C 20.28125 -22.921875 22.378906 -21.78125 23.761719 -19.800781 L 28.738281 -24.421875 C 26.820312 -27.121094 23.21875 -29.699219 17.28125 -29.699219 C 8.339844 -29.699219 1.921875 -23.398438 1.921875 -14.519531 Z M 1.921875 -14.519531 "/></g></g><g style="fill:#000000;fill-opacity:1;"><g transform="translate(947.637451, 503.425072)"><path style="stroke:none" d="M 11.398438 0 L 11.398438 -40.019531 L 3.78125 -40.019531 L 3.78125 0 Z M 11.398438 0 "/></g></g><g style="fill:#000000;fill-opacity:1;"><g transform="translate(961.317397, 503.425072)"><path style="stroke:none" d="M 7.558594 -33.238281 C 10.078125 -33.238281 12.121094 -35.28125 12.121094 -37.800781 C 12.121094 -40.320312 10.078125 -42.359375 7.558594 -42.359375 C 5.101562 -42.359375 3 -40.320312 3 -37.800781 C 3 -35.28125 5.101562 -33.238281 7.558594 -33.238281 Z M 11.398438 0 L 11.398438 -28.980469 L 3.78125 -28.980469 L 3.78125 0 Z M 11.398438 0 "/></g></g><g style="fill:#000000;fill-opacity:1;"><g transform="translate(974.997389, 503.425072)"><path style="stroke:none" d="M 1.921875 -14.519531 C 1.921875 -5.21875 8.578125 0.71875 17.398438 0.71875 C 21.898438 0.71875 26.398438 -0.601562 29.339844 -3.300781 L 25.980469 -8.21875 C 24.121094 -6.421875 20.941406 -5.339844 18.238281 -5.339844 C 13.320312 -5.339844 10.378906 -8.398438 9.898438 -12.058594 L 31.441406 -12.058594 L 31.441406 -13.738281 C 31.441406 -23.21875 25.558594 -29.699219 16.921875 -29.699219 C 8.101562 -29.699219 1.921875 -22.921875 1.921875 -14.519531 Z M 16.921875 -23.640625 C 21.960938 -23.640625 23.878906 -19.980469 24.058594 -17.21875 L 9.78125 -17.21875 C 10.140625 -20.101562 12.179688 -23.640625 16.921875 -23.640625 Z M 16.921875 -23.640625 "/></g></g><g style="fill:#000000;fill-opacity:1;"><g transform="translate(1006.677379, 503.425072)"><path style="stroke:none" d="M 30.960938 0 L 30.960938 -20.460938 C 30.960938 -26.101562 27.898438 -29.699219 21.539062 -29.699219 C 16.800781 -29.699219 13.261719 -27.421875 11.398438 -25.199219 L 11.398438 -28.980469 L 3.78125 -28.980469 L 3.78125 0 L 11.398438 0 L 11.398438 -19.5 C 12.660156 -21.238281 15 -22.921875 18 -22.921875 C 21.238281 -22.921875 23.339844 -21.539062 23.339844 -17.519531 L 23.339844 0 Z M 30.960938 0 "/></g></g><g style="fill:#000000;fill-opacity:1;"><g transform="translate(1039.917337, 503.425072)"><path style="stroke:none" d="M 13.5 0.71875 C 16.679688 0.71875 18.71875 -0.121094 19.859375 -1.140625 L 18.238281 -6.898438 C 17.820312 -6.480469 16.738281 -6.058594 15.601562 -6.058594 C 13.921875 -6.058594 12.960938 -7.441406 12.960938 -9.238281 L 12.960938 -22.320312 L 18.839844 -22.320312 L 18.839844 -28.980469 L 12.960938 -28.980469 L 12.960938 -36.898438 L 5.28125 -36.898438 L 5.28125 -28.980469 L 0.480469 -28.980469 L 0.480469 -22.320312 L 5.28125 -22.320312 L 5.28125 -7.199219 C 5.28125 -2.039062 8.160156 0.71875 13.5 0.71875 Z M 13.5 0.71875 "/></g></g><g style="fill:#000000;fill-opacity:1;"><g transform="translate(1058.69732, 503.425072)"><path style="stroke:none" d="M 1.261719 -3.78125 C 4.320312 -0.960938 9.179688 0.71875 14.21875 0.71875 C 22.261719 0.71875 26.761719 -3.238281 26.761719 -8.578125 C 26.761719 -15.78125 20.101562 -17.101562 15.121094 -18.058594 C 11.878906 -18.71875 9.601562 -19.378906 9.601562 -21.179688 C 9.601562 -22.859375 11.398438 -23.878906 14.160156 -23.878906 C 17.699219 -23.878906 21 -22.378906 22.738281 -20.519531 L 25.738281 -25.738281 C 22.921875 -28.019531 19.019531 -29.699219 14.101562 -29.699219 C 6.480469 -29.699219 2.21875 -25.441406 2.21875 -20.578125 C 2.21875 -13.679688 8.640625 -12.480469 13.621094 -11.519531 C 16.921875 -10.859375 19.441406 -10.140625 19.441406 -8.101562 C 19.441406 -6.300781 17.878906 -5.160156 14.578125 -5.160156 C 10.980469 -5.160156 6.660156 -7.140625 4.558594 -9.121094 Z M 1.261719 -3.78125 "/></g></g><g style="fill:#000000;fill-opacity:1;"><g transform="translate(1085.817298, 503.425072)"><path style="stroke:none" d="M 2.820312 -4.199219 C 2.820312 -1.558594 5.039062 0.660156 7.679688 0.660156 C 10.320312 0.660156 12.539062 -1.558594 12.539062 -4.199219 C 12.539062 -6.839844 10.320312 -9.058594 7.679688 -9.058594 C 5.039062 -9.058594 2.820312 -6.839844 2.820312 -4.199219 Z M 2.820312 -4.199219 "/></g></g><g style="fill:#ff009d;fill-opacity:1;"><g transform="translate(622.35408, 304.125005)"><path style="stroke:none" d="M 3.535156 0 L 3.535156 -4.0625 L 6.425781 -4.0625 C 8.871094 -4.0625 10.230469 -5.710938 10.230469 -7.683594 C 10.230469 -9.671875 8.886719 -11.335938 6.425781 -11.335938 L 1.121094 -11.335938 L 1.121094 0 Z M 7.765625 -7.699219 C 7.765625 -6.746094 7.054688 -6.136719 6.101562 -6.136719 L 3.535156 -6.136719 L 3.535156 -9.261719 L 6.101562 -9.261719 C 7.054688 -9.261719 7.765625 -8.632812 7.765625 -7.699219 Z M 7.765625 -7.699219 "/></g></g><g style="fill:#ff009d;fill-opacity:1;"><g transform="translate(633.80719, 304.125005)"><path style="stroke:none" d="M 10.300781 0 L 7.75 -4.316406 C 8.972656 -4.605469 10.230469 -5.675781 10.230469 -7.683594 C 10.230469 -9.789062 8.785156 -11.335938 6.425781 -11.335938 L 1.121094 -11.335938 L 1.121094 0 L 3.535156 0 L 3.535156 -4.0625 L 5.300781 -4.0625 L 7.527344 0 Z M 7.765625 -7.699219 C 7.765625 -6.746094 7.035156 -6.136719 6.066406 -6.136719 L 3.535156 -6.136719 L 3.535156 -9.261719 L 6.066406 -9.261719 C 7.035156 -9.261719 7.765625 -8.652344 7.765625 -7.699219 Z M 7.765625 -7.699219 "/></g></g><g style="fill:#ff009d;fill-opacity:1;"><g transform="translate(645.583148, 304.125005)"><path style="stroke:none" d="M 0.578125 -5.660156 C 0.578125 -2.242188 3.074219 0.203125 6.492188 0.203125 C 9.925781 0.203125 12.421875 -2.242188 12.421875 -5.660156 C 12.421875 -9.074219 9.925781 -11.523438 6.492188 -11.523438 C 3.074219 -11.523438 0.578125 -9.074219 0.578125 -5.660156 Z M 9.941406 -5.660156 C 9.941406 -3.550781 8.582031 -1.9375 6.492188 -1.9375 C 4.402344 -1.9375 3.058594 -3.550781 3.058594 -5.660156 C 3.058594 -7.785156 4.402344 -9.382812 6.492188 -9.382812 C 8.582031 -9.382812 9.941406 -7.785156 9.941406 -5.660156 Z M 9.941406 -5.660156 "/></g></g><g style="fill:#ff009d;fill-opacity:1;"><g transform="translate(659.432158, 304.125005)"><path style="stroke:none" d="M 7.273438 0 C 9.433594 0 10.570312 -1.359375 10.570312 -3.058594 C 10.570312 -4.488281 9.601562 -5.660156 8.394531 -5.847656 C 9.464844 -6.066406 10.351562 -7.019531 10.351562 -8.445312 C 10.351562 -9.960938 9.246094 -11.335938 7.085938 -11.335938 L 1.121094 -11.335938 L 1.121094 0 Z M 3.535156 -9.277344 L 6.558594 -9.277344 C 7.375 -9.277344 7.886719 -8.734375 7.886719 -8.039062 C 7.886719 -7.308594 7.375 -6.78125 6.558594 -6.78125 L 3.535156 -6.78125 Z M 3.535156 -4.726562 L 6.644531 -4.726562 C 7.597656 -4.726562 8.105469 -4.113281 8.105469 -3.398438 C 8.105469 -2.582031 7.5625 -2.054688 6.644531 -2.054688 L 3.535156 -2.054688 Z M 3.535156 -4.726562 "/></g></g><g style="fill:#ff009d;fill-opacity:1;"><g transform="translate(671.54796, 304.125005)"><path style="stroke:none" d="M 8.328125 0 L 8.328125 -2.125 L 3.535156 -2.125 L 3.535156 -11.335938 L 1.121094 -11.335938 L 1.121094 0 Z M 8.328125 0 "/></g></g><g style="fill:#ff009d;fill-opacity:1;"><g transform="translate(681.284867, 304.125005)"><path style="stroke:none" d="M 9.144531 0 L 9.144531 -2.089844 L 3.535156 -2.089844 L 3.535156 -4.726562 L 9.023438 -4.726562 L 9.023438 -6.796875 L 3.535156 -6.796875 L 3.535156 -9.261719 L 9.144531 -9.261719 L 9.144531 -11.335938 L 1.121094 -11.335938 L 1.121094 0 Z M 9.144531 0 "/></g></g><g style="fill:#ff009d;fill-opacity:1;"><g transform="translate(692.041306, 304.125005)"><path style="stroke:none" d="M 13.410156 0 L 13.410156 -11.335938 L 10.011719 -11.335938 L 7.257812 -4.265625 L 4.503906 -11.335938 L 1.121094 -11.335938 L 1.121094 0 L 3.535156 0 L 3.535156 -8.15625 L 6.730469 0 L 7.785156 0 L 10.980469 -8.15625 L 10.980469 0 Z M 13.410156 0 "/></g></g><g style="fill:#ff009d;fill-opacity:1;"><g transform="translate(707.419601, 304.125005)"><path style="stroke:none" d=""/></g></g><g style="fill:#ff009d;fill-opacity:1;"><g transform="translate(712.619602, 304.125005)"><path style="stroke:none" d="M 0.339844 -1.597656 C 1.410156 -0.527344 2.972656 0.203125 5.148438 0.203125 C 8.207031 0.203125 9.6875 -1.359375 9.6875 -3.433594 C 9.6875 -5.949219 7.308594 -6.507812 5.4375 -6.933594 C 4.128906 -7.238281 3.179688 -7.476562 3.179688 -8.242188 C 3.179688 -8.921875 3.757812 -9.398438 4.84375 -9.398438 C 5.949219 -9.398438 7.171875 -9.007812 8.089844 -8.15625 L 9.433594 -9.925781 C 8.3125 -10.960938 6.816406 -11.503906 5.011719 -11.503906 C 2.34375 -11.503906 0.714844 -9.976562 0.714844 -8.089844 C 0.714844 -5.558594 3.09375 -5.046875 4.945312 -4.621094 C 6.253906 -4.316406 7.238281 -4.027344 7.238281 -3.179688 C 7.238281 -2.53125 6.59375 -1.902344 5.269531 -1.902344 C 3.703125 -1.902344 2.464844 -2.601562 1.664062 -3.433594 Z M 0.339844 -1.597656 "/></g></g><g style="fill:#ff009d;fill-opacity:1;"><g transform="translate(723.664901, 304.125005)"><path style="stroke:none" d="M 6.167969 0 L 6.167969 -9.210938 L 9.464844 -9.210938 L 9.464844 -11.335938 L 0.425781 -11.335938 L 0.425781 -9.210938 L 3.738281 -9.210938 L 3.738281 0 Z M 6.167969 0 "/></g></g><g style="fill:#ff009d;fill-opacity:1;"><g transform="translate(734.404345, 304.125005)"><path style="stroke:none" d="M 11.691406 0 L 7.324219 -11.335938 L 4.300781 -11.335938 L -0.0859375 0 L 2.566406 0 L 3.28125 -1.953125 L 8.34375 -1.953125 L 9.058594 0 Z M 7.683594 -4.042969 L 3.925781 -4.042969 L 5.8125 -9.246094 Z M 7.683594 -4.042969 "/></g></g><g style="fill:#ff009d;fill-opacity:1;"><g transform="translate(746.876985, 304.125005)"><path style="stroke:none" d="M 6.167969 0 L 6.167969 -9.210938 L 9.464844 -9.210938 L 9.464844 -11.335938 L 0.425781 -11.335938 L 0.425781 -9.210938 L 3.738281 -9.210938 L 3.738281 0 Z M 6.167969 0 "/></g></g><g style="fill:#ff009d;fill-opacity:1;"><g transform="translate(757.616429, 304.125005)"><path style="stroke:none" d="M 9.144531 0 L 9.144531 -2.089844 L 3.535156 -2.089844 L 3.535156 -4.726562 L 9.023438 -4.726562 L 9.023438 -6.796875 L 3.535156 -6.796875 L 3.535156 -9.261719 L 9.144531 -9.261719 L 9.144531 -11.335938 L 1.121094 -11.335938 L 1.121094 0 Z M 9.144531 0 "/></g></g><g style="fill:#ff009d;fill-opacity:1;"><g transform="translate(768.372868, 304.125005)"><path style="stroke:none" d="M 13.410156 0 L 13.410156 -11.335938 L 10.011719 -11.335938 L 7.257812 -4.265625 L 4.503906 -11.335938 L 1.121094 -11.335938 L 1.121094 0 L 3.535156 0 L 3.535156 -8.15625 L 6.730469 0 L 7.785156 0 L 10.980469 -8.15625 L 10.980469 0 Z M 13.410156 0 "/></g></g><g style="fill:#ff009d;fill-opacity:1;"><g transform="translate(783.751164, 304.125005)"><path style="stroke:none" d="M 9.144531 0 L 9.144531 -2.089844 L 3.535156 -2.089844 L 3.535156 -4.726562 L 9.023438 -4.726562 L 9.023438 -6.796875 L 3.535156 -6.796875 L 3.535156 -9.261719 L 9.144531 -9.261719 L 9.144531 -11.335938 L 1.121094 -11.335938 L 1.121094 0 Z M 9.144531 0 "/></g></g><g style="fill:#ff009d;fill-opacity:1;"><g transform="translate(794.507602, 304.125005)"><path style="stroke:none" d="M 11.269531 0 L 11.269531 -11.335938 L 8.855469 -11.335938 L 8.855469 -3.992188 L 3.601562 -11.335938 L 1.121094 -11.335938 L 1.121094 0 L 3.535156 0 L 3.535156 -7.613281 L 8.9375 0 Z M 11.269531 0 "/></g></g><g style="fill:#ff009d;fill-opacity:1;"><g transform="translate(807.744891, 304.125005)"><path style="stroke:none" d="M 6.167969 0 L 6.167969 -9.210938 L 9.464844 -9.210938 L 9.464844 -11.335938 L 0.425781 -11.335938 L 0.425781 -9.210938 L 3.738281 -9.210938 L 3.738281 0 Z M 6.167969 0 "/></g></g><g style="fill:#ff009d;fill-opacity:1;"><g transform="translate(1312.903409, 743.302711)"><path style="stroke:none" d="M 11.269531 0 L 11.269531 -11.335938 L 8.855469 -11.335938 L 8.855469 -3.992188 L 3.601562 -11.335938 L 1.121094 -11.335938 L 1.121094 0 L 3.535156 0 L 3.535156 -7.613281 L 8.9375 0 Z M 11.269531 0 "/></g></g><g style="fill:#ff009d;fill-opacity:1;"><g transform="translate(1326.140698, 743.302711)"><path style="stroke:none" d="M 9.144531 0 L 9.144531 -2.089844 L 3.535156 -2.089844 L 3.535156 -4.726562 L 9.023438 -4.726562 L 9.023438 -6.796875 L 3.535156 -6.796875 L 3.535156 -9.261719 L 9.144531 -9.261719 L 9.144531 -11.335938 L 1.121094 -11.335938 L 1.121094 0 Z M 9.144531 0 "/></g></g><g style="fill:#ff009d;fill-opacity:1;"><g transform="translate(1336.897137, 743.302711)"><path style="stroke:none" d="M 11.402344 0 L 7.289062 -5.828125 L 11.148438 -11.335938 L 8.242188 -11.335938 L 5.675781 -7.460938 L 3.074219 -11.335938 L 0.203125 -11.335938 L 4.0625 -5.8125 L -0.0507812 0 L 2.820312 0 L 5.675781 -4.148438 L 8.515625 0 Z M 11.402344 0 "/></g></g><g style="fill:#ff009d;fill-opacity:1;"><g transform="translate(1349.0979, 743.302711)"><path style="stroke:none" d="M 6.167969 0 L 6.167969 -9.210938 L 9.464844 -9.210938 L 9.464844 -11.335938 L 0.425781 -11.335938 L 0.425781 -9.210938 L 3.738281 -9.210938 L 3.738281 0 Z M 6.167969 0 "/></g></g></g></svg>